<?xml version="1.0" standalone="no"?>
<!DOCTYPE svg PUBLIC "-//W3C//DTD SVG 20010904//EN"
 "http://www.w3.org/TR/2001/REC-SVG-20010904/DTD/svg10.dtd">
<svg version="1.0" xmlns="http://www.w3.org/2000/svg"
 width="910.000000pt" height="607.000000pt" viewBox="0 0 910.000000 607.000000"
 preserveAspectRatio="xMidYMid meet">

<g transform="translate(0.000000,607.000000) scale(0.100000,-0.100000)"
fill="#000000" stroke="none">
<path d="M0 5995 c0 -59 3 -75 15 -75 8 0 23 -10 34 -21 24 -26 14 -55 -25
-69 l-24 -10 0 -398 c0 -384 1 -400 20 -417 11 -10 22 -26 25 -36 4 -11 13
-19 21 -19 10 0 14 -12 14 -39 0 -22 4 -41 8 -43 5 -1 12 -20 15 -42 5 -34 4
-38 -13 -33 -12 3 -24 -1 -31 -11 -7 -12 -12 -14 -15 -4 -3 6 -14 12 -25 12
-19 0 -19 -27 -19 -1380 l0 -1379 38 -6 c67 -11 116 -26 182 -59 36 -17 91
-40 123 -51 31 -10 57 -25 57 -31 0 -10 52 -30 62 -24 2 1 16 -5 32 -14 l29
-15 146 147 c81 81 178 176 216 212 64 59 115 130 115 159 0 6 -8 11 -17 11
-10 0 -31 7 -47 15 -15 8 -35 15 -42 15 -8 0 -14 4 -14 9 0 5 -24 21 -54 36
-30 15 -62 35 -71 45 -15 16 -86 45 -195 78 -19 6 -69 15 -110 21 -100 14
-219 37 -251 49 -29 12 -114 91 -114 107 1 23 31 55 52 55 13 0 23 6 23 13 0
22 187 78 198 60 4 -6 34 -16 67 -22 33 -6 78 -20 100 -30 83 -39 114 -45 265
-51 149 -7 210 -18 210 -40 0 -5 9 -10 20 -10 11 0 20 -3 20 -7 0 -5 18 -17
40 -27 22 -11 40 -22 40 -26 0 -3 18 -14 41 -24 33 -15 45 -16 62 -6 21 11 98
99 144 163 13 17 60 71 105 120 91 99 127 145 178 227 19 30 37 57 40 60 4 4
17 28 64 115 6 11 26 40 45 64 29 37 59 55 218 132 101 49 192 89 203 89 11 0
20 3 20 8 0 4 30 18 68 31 73 26 169 74 247 123 168 106 262 160 355 205 107
53 218 93 254 93 12 0 47 9 79 20 134 45 428 110 562 125 77 9 163 18 190 22
33 3 69 0 105 -11 30 -10 96 -21 145 -27 103 -11 140 -21 211 -57 l51 -25 44
30 c24 17 54 33 66 37 12 4 31 20 42 35 15 21 32 30 62 34 64 8 64 8 -16 76
-22 19 -55 54 -73 78 -19 24 -52 53 -77 64 -24 11 -46 27 -49 35 -3 8 -12 14
-21 14 -9 0 -28 12 -43 28 -15 15 -48 41 -74 57 -27 17 -48 33 -48 36 0 4 -17
14 -37 22 -21 8 -54 30 -73 47 -64 59 -104 79 -205 105 -97 24 -108 25 -360
21 -282 -5 -285 -5 -285 -18 0 -4 -16 -8 -35 -8 -19 0 -43 -4 -53 -9 -9 -5
-44 -17 -77 -28 -65 -20 -109 -57 -132 -113 -8 -19 -25 -46 -36 -60 -14 -15
-15 -19 -4 -11 9 7 17 10 17 5 0 -5 5 -2 11 6 9 13 10 13 6 0 -2 -8 -9 -15
-14 -15 -6 0 -15 -3 -19 -7 -4 -5 -18 -8 -31 -8 -13 0 -34 -11 -46 -24 -12
-13 -40 -32 -62 -44 -29 -14 -44 -30 -53 -56 -7 -20 -17 -36 -22 -36 -10 0
-42 -79 -35 -90 3 -4 -9 -10 -26 -12 -16 -3 -32 -1 -35 4 -3 4 -14 8 -25 8
-21 0 -120 39 -129 50 -3 4 -21 14 -40 24 -52 24 -83 76 -88 147 -5 66 -3 68
63 44 22 -8 52 -15 66 -15 31 0 114 43 147 75 13 13 38 29 55 35 30 10 81 66
72 79 -2 4 -59 8 -127 9 -68 2 -150 7 -183 11 -36 5 -70 5 -85 -1 -31 -12
-186 -1 -214 15 -12 6 -48 14 -81 17 -45 4 -61 9 -63 22 -4 20 41 32 111 29
26 -1 47 2 47 6 0 5 126 7 280 5 201 -3 280 -1 280 7 0 7 28 11 80 11 47 0 80
4 80 10 0 6 16 10 36 10 26 0 42 7 63 30 24 26 33 30 67 27 21 -3 29 -2 17 0
-19 4 -23 11 -23 42 0 34 -3 39 -37 52 -20 8 -41 13 -45 11 -21 -6 -107 50
-126 83 -12 19 -26 35 -31 35 -5 0 -12 8 -15 18 -3 9 -19 26 -36 37 -16 11
-30 26 -30 33 0 6 -4 12 -9 12 -5 0 -12 35 -16 78 -7 76 -26 132 -45 132 -6 0
-10 7 -10 15 0 8 -7 15 -15 15 -18 0 -65 47 -65 65 0 8 -5 15 -10 15 -6 0 -18
17 -28 38 -9 20 -23 43 -29 50 -7 7 -13 21 -13 30 0 10 -13 44 -30 75 -16 32
-30 69 -30 81 0 35 -60 144 -82 150 -53 13 -148 -67 -148 -124 0 -9 -7 -25
-15 -36 -8 -12 -16 -40 -17 -63 -2 -22 -8 -41 -14 -41 -6 0 -17 -18 -24 -40
-7 -22 -19 -40 -27 -40 -7 0 -13 -6 -13 -13 0 -16 -103 -14 -108 2 -2 6 -9 11
-16 11 -7 0 -18 11 -26 24 -7 13 -21 27 -32 29 -11 3 -17 10 -13 16 5 10 -14
32 -59 69 -21 17 -22 98 -1 106 8 3 15 14 15 24 0 10 13 33 30 52 16 19 29 41
30 48 0 6 5 12 10 12 6 0 10 5 10 10 0 6 -75 10 -205 10 l-204 0 16 -44 17
-44 -30 -35 c-34 -42 -62 -43 -135 -9 -52 24 -59 36 -59 93 l0 39 -700 0 -700
0 0 -75z m3037 -1041 c-3 -3 -12 -4 -19 -1 -8 3 -5 6 6 6 11 1 17 -2 13 -5z"/>
<path d="M3946 6054 c-3 -9 -12 -14 -19 -11 -17 6 -47 -22 -40 -39 5 -13 -1
-16 -39 -18 -7 0 -28 -11 -46 -24 -17 -13 -36 -21 -41 -18 -4 3 -26 -3 -47
-14 -22 -10 -33 -19 -25 -20 11 0 9 -6 -6 -20 -13 -11 -25 -40 -30 -67 -12
-72 -10 -223 3 -231 6 -4 24 -33 39 -65 15 -32 36 -63 46 -70 10 -6 19 -17 19
-22 0 -6 18 -29 40 -50 22 -21 40 -42 40 -46 0 -4 14 -21 31 -38 25 -26 38
-31 78 -31 26 0 55 6 65 13 17 13 17 15 -3 56 -31 60 -63 167 -59 199 2 19 10
28 26 30 12 2 22 -1 22 -7 0 -24 20 -9 28 21 10 40 29 45 77 22 32 -15 38 -15
51 -2 12 11 12 24 4 68 -15 77 -4 163 25 194 23 25 80 46 128 46 26 0 27 2 27
49 0 26 -5 62 -11 80 -9 27 -16 31 -45 31 -28 0 -36 -5 -44 -25 -5 -14 -16
-25 -24 -25 -7 0 -19 -7 -26 -15 -17 -20 -30 -19 -30 3 0 10 -13 28 -30 40
-24 18 -43 22 -104 22 -58 0 -75 -3 -80 -16z"/>
<path d="M4360 6058 c0 -26 21 -88 30 -88 9 0 30 62 30 88 0 7 -13 12 -30 12
-17 0 -30 -5 -30 -12z"/>
<path d="M4437 6063 c-4 -3 -7 -24 -7 -46 0 -36 2 -39 22 -34 30 8 129 -41
202 -100 51 -42 64 -48 104 -48 54 0 92 28 117 88 8 20 19 37 24 37 5 0 8 8 6
18 -1 9 -8 16 -14 15 -6 -2 -11 9 -11 23 0 48 -20 56 -117 49 -153 -12 -243
-13 -243 -4 0 10 -73 12 -83 2z"/>
<path d="M5080 6055 c7 -8 19 -15 26 -15 8 0 14 -4 14 -9 0 -15 26 -20 134
-26 70 -4 106 -3 111 4 3 6 10 9 15 6 10 -6 70 34 70 47 0 4 -86 8 -191 8
-169 0 -190 -2 -179 -15z"/>
<path d="M5753 6005 c-35 -35 -63 -68 -63 -74 0 -6 -6 -11 -14 -11 -18 0 -63
-37 -54 -45 16 -16 155 97 171 139 4 9 15 16 26 16 28 0 35 -35 27 -123 -4
-40 -7 -81 -7 -92 0 -10 -5 -25 -11 -32 -15 -19 -5 -25 16 -10 13 9 20 36 26
97 5 47 15 103 24 125 26 68 23 75 -31 74 -45 -1 -52 -4 -110 -64z"/>
<path d="M5927 6063 c-12 -11 -8 -34 9 -50 30 -30 4 -200 -35 -233 -3 -3 -19
-21 -36 -39 -23 -26 -25 -32 -11 -27 16 5 17 4 6 -9 -7 -8 -16 -13 -20 -10 -4
3 -12 -1 -18 -8 -12 -14 -38 -152 -47 -252 -4 -38 -13 -95 -20 -125 -7 -30
-16 -84 -20 -120 -6 -59 -15 -109 -45 -250 -18 -90 -33 -281 -23 -295 10 -12
116 -65 131 -65 6 0 16 9 22 20 6 11 15 20 21 20 21 0 99 94 99 120 0 6 -7 19
-16 28 -9 9 -12 18 -7 19 6 2 8 14 6 27 -3 13 0 27 6 30 6 4 11 32 11 63 0 45
8 72 36 130 33 66 44 78 113 126 42 30 107 69 144 87 69 34 69 34 102 16 35
-19 45 -39 45 -94 l0 -33 83 2 c60 1 90 -3 112 -15 17 -9 38 -16 47 -16 9 0
20 -4 23 -10 11 -18 35 -11 35 10 0 12 -7 34 -15 50 -9 17 -11 30 -6 30 12 0
23 44 15 64 -3 8 -16 18 -27 22 -12 3 -28 11 -36 18 -8 6 -27 11 -43 12 -35 2
-54 25 -66 81 -5 23 -21 61 -35 85 l-25 44 -60 -6 c-34 -3 -58 -2 -55 3 3 5
-4 21 -15 36 -30 41 -36 84 -15 104 18 15 24 14 101 -23 46 -22 89 -40 96 -40
18 0 66 -39 66 -54 0 -6 -9 -19 -20 -29 -24 -20 -26 -40 -5 -57 11 -9 20 -8
45 10 16 12 35 18 41 14 6 -3 35 -43 64 -88 29 -44 62 -89 73 -100 21 -18 22
-18 31 6 5 14 11 56 12 92 l2 67 -63 56 c-65 56 -96 95 -158 196 -18 30 -26
40 -81 102 -35 40 -98 78 -112 69 -5 -3 -9 -14 -9 -24 0 -27 -19 -35 -38 -16
-13 12 -13 20 -4 38 18 37 18 70 1 81 -28 18 -49 1 -49 -38 0 -31 -4 -38 -30
-46 -35 -13 -37 -20 -10 -44 11 -10 20 -23 20 -30 0 -20 -35 -45 -63 -45 -35
0 -45 37 -23 81 20 40 20 39 -7 39 -13 0 -32 -9 -44 -19 -24 -23 -77 -51 -95
-51 -7 1 1 7 17 14 17 7 39 23 49 35 11 11 24 21 30 21 6 0 29 16 51 35 51 45
52 45 76 78 12 15 26 26 33 24 6 -2 16 3 22 11 9 13 18 11 65 -12 30 -15 65
-34 79 -42 15 -9 40 -13 63 -10 20 2 37 0 37 -5 0 -5 9 -9 20 -9 23 0 26 23 7
42 -8 7 -12 19 -10 28 2 8 -5 25 -17 38 -21 22 -23 22 -324 22 -166 0 -306 -3
-309 -7z m629 -818 c10 -15 13 -31 8 -42 -4 -10 -8 -22 -8 -28 -1 -5 -7 -10
-14 -10 -13 0 -42 64 -42 93 0 22 39 13 56 -13z"/>
<path d="M6800 6055 l22 -12 -27 -17 c-15 -10 -24 -23 -21 -31 3 -8 1 -17 -3
-19 -5 -3 -11 -19 -14 -36 -6 -28 -9 -30 -52 -30 -33 0 -45 -4 -45 -15 0 -22
36 -38 59 -25 33 17 62 11 91 -19 22 -24 24 -31 12 -36 -9 -3 -18 -1 -22 5 -5
8 -22 4 -53 -11 -30 -15 -43 -27 -38 -33 5 -6 8 -22 6 -36 -1 -21 -7 -25 -38
-28 -20 -2 -37 -7 -37 -12 0 -5 -3 -15 -6 -23 -4 -12 0 -14 15 -10 12 3 21 1
21 -6 0 -6 5 -11 11 -11 5 0 7 4 4 10 -11 19 30 -3 50 -27 11 -13 26 -23 33
-23 9 0 11 -7 7 -20 -8 -24 10 -27 19 -3 4 9 1 20 -5 24 -7 4 -9 14 -4 25 5
15 11 7 25 -36 16 -47 19 -50 19 -24 1 16 -4 35 -10 41 -13 13 -8 55 6 60 6 2
15 -7 20 -19 6 -13 17 -23 25 -24 36 -2 41 -5 37 -16 -2 -7 -12 -13 -23 -13
-15 0 -19 -8 -20 -40 -1 -35 -1 -36 3 -6 4 33 5 33 19 12 19 -27 28 -27 41 2
10 20 11 18 21 -23 9 -38 11 -42 17 -22 8 25 25 30 25 7 0 -8 10 -25 21 -36
17 -17 23 -19 31 -8 7 10 8 6 4 -13 -5 -22 -3 -26 9 -22 8 4 15 11 15 18 0 6
7 2 15 -8 13 -17 15 -17 20 -3 10 25 -63 127 -92 127 -7 0 -13 6 -13 13 0 7
-13 28 -30 47 -29 34 -42 100 -20 100 6 0 10 -11 10 -25 0 -14 5 -25 10 -25 6
0 10 -7 10 -15 0 -8 5 -15 10 -15 6 0 10 -8 10 -17 1 -24 31 -59 58 -67 12 -4
22 -13 22 -21 0 -19 33 -24 69 -9 39 16 41 51 6 109 -13 22 -33 58 -44 80 -35
68 -72 115 -91 115 -5 0 -14 9 -21 21 -8 16 -17 20 -38 16 -16 -3 -33 -1 -39
5 -17 17 -25 3 -12 -21 17 -33 2 -43 -30 -20 -24 18 -27 25 -18 43 8 19 16 22
51 18 52 -4 58 -4 136 1 54 4 68 2 85 -15 21 -20 92 -58 109 -58 4 0 29 -14
55 -32 26 -18 70 -40 97 -50 28 -9 44 -17 37 -17 -8 -1 -11 -8 -7 -20 3 -10
-1 -23 -8 -30 -12 -9 -17 -5 -27 19 -7 16 -19 30 -26 30 -8 0 -14 4 -14 10 0
5 -19 15 -42 21 -24 7 -50 18 -58 25 -26 21 -142 66 -156 60 -8 -3 -14 -11
-14 -18 0 -18 52 -121 66 -130 6 -4 17 -22 25 -40 7 -18 24 -44 36 -58 13 -14
23 -31 23 -38 0 -27 114 -129 179 -160 68 -32 91 -32 91 1 0 27 -22 87 -32 87
-4 0 -8 7 -8 15 0 18 -20 57 -35 67 -6 5 -6 8 2 8 13 0 53 -47 53 -64 0 -6 9
-22 20 -36 11 -14 20 -36 20 -50 0 -24 10 -33 91 -83 14 -8 46 -19 70 -22 41
-6 43 -6 28 12 -8 10 -21 29 -27 43 -7 14 -23 45 -37 69 -14 24 -25 50 -25 57
0 21 -150 164 -172 164 -4 0 -8 7 -8 16 0 13 7 12 40 -7 22 -13 40 -26 40 -29
0 -4 18 -15 40 -25 22 -10 40 -22 40 -26 0 -4 9 -11 20 -14 11 -3 26 -12 33
-20 8 -7 41 -27 74 -44 52 -26 66 -29 94 -21 19 6 49 10 69 10 29 0 32 2 20
14 -18 16 -90 29 -90 15 0 -5 -6 -9 -14 -9 -16 0 -26 30 -26 83 0 20 -4 37 -9
37 -5 0 -8 8 -7 18 1 12 -5 16 -21 15 -14 -2 -22 2 -20 9 1 7 -8 14 -20 16
-13 2 -23 8 -23 13 0 14 82 -1 103 -19 9 -8 17 -22 17 -30 0 -9 3 -13 6 -9 12
12 59 -21 89 -62 17 -22 38 -41 48 -41 15 0 12 6 -12 33 -38 40 -41 60 -6 47
13 -5 27 -6 29 -1 5 7 -19 16 -92 37 -7 2 -10 9 -6 15 4 7 -1 18 -11 26 -18
13 -18 13 1 14 10 1 24 1 31 0 6 -1 14 3 18 9 3 5 0 10 -8 10 -15 0 -50 44
-45 56 2 3 -8 12 -22 19 -14 8 -19 14 -12 15 6 0 12 5 12 11 0 5 -4 8 -9 5 -5
-3 -14 1 -21 10 -7 8 -19 13 -27 10 -7 -3 -13 -2 -13 3 0 16 13 21 27 10 10
-9 13 -8 13 5 0 14 3 14 20 4 11 -7 20 -19 20 -26 0 -7 4 -11 9 -8 5 3 8 -2 7
-11 0 -10 11 -23 26 -30 17 -9 29 -25 34 -46 3 -17 12 -35 18 -39 7 -5 3 -8
-9 -8 -15 0 -11 -8 22 -39 22 -22 38 -42 36 -45 -3 -3 2 -8 11 -12 9 -3 16
-11 16 -16 0 -6 -7 -8 -15 -5 -26 11 -26 -12 0 -29 31 -20 37 -78 8 -67 -14 5
-12 -1 7 -21 16 -17 31 -25 43 -22 15 4 18 0 13 -19 -4 -15 -1 -25 9 -29 12
-4 15 3 16 32 l0 37 15 -45 c7 -25 17 -69 20 -99 8 -58 32 -94 74 -105 19 -5
21 -5 10 3 -13 9 -11 14 8 38 12 15 38 51 57 78 18 28 44 62 57 77 13 14 30
36 38 48 8 12 21 28 28 36 6 7 12 16 12 21 0 5 13 24 30 43 16 19 29 41 30 48
0 6 5 12 10 12 6 0 10 10 10 23 0 12 7 31 15 41 8 11 15 31 15 45 0 48 -13 56
-105 61 -47 3 -86 2 -88 -2 -1 -4 -15 -1 -31 7 -32 17 -92 20 -101 5 -4 -6
-11 -8 -16 -5 -5 4 -9 2 -9 -3 0 -6 -18 -12 -40 -14 -36 -3 -45 1 -86 40 -39
36 -51 42 -77 38 -19 -3 -35 0 -39 7 -6 9 -8 9 -8 0 0 -7 8 -21 18 -31 31 -34
143 -268 141 -299 0 -14 -2 -15 -6 -3 -3 8 -21 49 -40 90 -65 142 -99 190
-240 337 -13 13 -23 27 -23 32 0 9 -45 31 -63 31 -7 0 -18 -9 -25 -21 -10 -16
-16 -18 -27 -9 -8 6 -19 9 -25 5 -5 -3 -13 1 -16 9 -4 10 -18 16 -38 16 l-31
-1 33 -14 c17 -8 32 -18 32 -24 0 -5 9 -13 20 -16 11 -3 20 -13 20 -21 0 -20
-17 -17 -29 5 -12 21 -61 34 -75 20 -17 -15 -78 -10 -91 8 -8 11 -14 13 -19 5
-4 -7 -2 -12 3 -12 6 0 11 -5 11 -10 0 -6 -7 -6 -19 1 -19 13 -51 6 -51 -9 0
-11 55 -36 79 -35 29 1 115 -19 136 -32 11 -7 37 -16 58 -19 20 -4 37 -11 37
-15 0 -11 -91 -6 -99 6 -18 27 -78 35 -260 37 -186 1 -188 1 -152 18 20 10 56
18 81 18 25 1 54 6 65 11 13 5 -12 7 -68 3 -123 -9 -185 -8 -159 3 6 2 12 10
12 17 0 15 55 35 130 46 39 6 -7 8 -152 8 -114 -1 -205 -4 -203 -8 6 -10 -24
-22 -36 -14 -5 3 -7 9 -4 14 3 5 -9 8 -26 8 -30 -1 -30 -2 -9 -13z m907 -52
c-3 -3 -11 -2 -17 2 -9 6 -9 10 1 16 14 8 27 -7 16 -18z m50 -28 c1 -15 0 -15
-3 -3 -3 9 -13 19 -22 22 -12 3 -12 4 3 3 12 -1 21 -10 22 -22z m-147 -5 c0
-5 -2 -10 -4 -10 -3 0 -8 5 -11 10 -3 6 -1 10 4 10 6 0 11 -4 11 -10z m-770
-30 c0 -11 -6 -20 -14 -20 -23 0 -46 11 -46 22 0 6 7 8 15 4 8 -3 15 -1 15 4
0 6 7 10 15 10 8 0 15 -9 15 -20z m1150 -67 c0 -13 -3 -13 -15 -3 -8 7 -15 16
-15 21 0 5 7 6 15 3 8 -4 15 -13 15 -21z m-244 -11 c20 -16 54 -75 54 -94 0
-15 -19 -8 -24 10 -4 10 -22 35 -41 56 -19 21 -35 40 -35 42 0 10 27 2 46 -14z
m-924 -104 c-7 -7 -12 -8 -12 -2 0 14 12 26 19 19 2 -3 -1 -11 -7 -17z m1138
-20 c0 -19 -2 -20 -10 -8 -13 19 -13 30 0 30 6 0 10 -10 10 -22z m-295 2 c-3
-5 -19 -10 -36 -10 -16 0 -29 5 -29 10 0 6 16 10 36 10 21 0 33 -4 29 -10z
m-141 -135 c3 -8 1 -15 -4 -15 -6 0 -10 7 -10 15 0 8 2 15 4 15 2 0 6 -7 10
-15z m553 -77 c-3 -7 -5 -2 -5 12 0 14 2 19 5 13 2 -7 2 -19 0 -25z m-441
-113 c3 -8 14 -17 25 -20 10 -4 19 -11 19 -16 0 -14 -57 18 -63 36 -4 8 -2 15
4 15 5 0 12 -7 15 -15z"/>
<path d="M7322 6053 c27 -15 68 -17 68 -4 0 5 10 11 23 13 12 2 -9 4 -46 4
-60 0 -65 -1 -45 -13z"/>
<path d="M7448 6063 c7 -3 16 -2 19 1 4 3 -2 6 -13 5 -11 0 -14 -3 -6 -6z"/>
<path d="M7860 5956 c0 -2 7 -7 16 -10 8 -3 12 -2 9 4 -6 10 -25 14 -25 6z"/>
<path d="M5365 5914 c-20 -15 -20 -16 4 -12 14 2 26 9 29 16 5 16 -9 15 -33
-4z"/>
<path d="M5916 5889 c-3 -18 -4 -34 -2 -36 2 -3 7 10 11 27 4 17 5 34 2 36 -2
3 -7 -10 -11 -27z"/>
<path d="M6580 5762 c0 -23 17 -48 27 -39 4 5 1 12 -7 17 -8 6 -10 10 -4 10 5
0 15 -5 21 -11 12 -12 33 -4 33 12 0 6 -4 8 -8 5 -5 -3 -20 1 -35 9 -24 12
-27 12 -27 -3z"/>
<path d="M6670 5740 c0 -5 5 -10 10 -10 6 0 10 5 10 10 0 6 -4 10 -10 10 -5 0
-10 -4 -10 -10z"/>
<path d="M6610 5710 c0 -5 5 -10 10 -10 6 0 10 5 10 10 0 6 -4 10 -10 10 -5 0
-10 -4 -10 -10z"/>
<path d="M7797 5644 c-3 -4 -2 -15 3 -25 6 -9 7 -26 3 -36 -5 -15 -3 -15 13 3
10 11 25 19 32 17 20 -8 14 15 -10 31 -25 18 -32 19 -41 10z"/>
<path d="M4393 5624 c-3 -9 -2 -33 3 -53 7 -27 15 -37 32 -39 22 -3 23 -1 16
35 -12 66 -37 94 -51 57z"/>
<path d="M6711 5588 c-13 -20 -12 -22 1 -11 11 10 17 10 27 0 11 -10 11 -8 2
11 -6 12 -13 22 -14 22 -1 0 -8 -10 -16 -22z"/>
<path d="M7192 5562 c-14 -4 -17 -42 -3 -42 5 0 12 -12 16 -27 3 -15 17 -37
30 -49 l24 -22 6 28 c5 22 -1 38 -27 72 -19 25 -39 43 -46 40z"/>
<path d="M7650 5531 c0 -22 18 -31 44 -22 17 7 16 9 -7 24 -33 21 -37 21 -37
-2z"/>
<path d="M7137 5515 c-4 -8 -2 -17 3 -20 6 -4 10 -1 10 5 0 7 8 9 22 4 20 -6
21 -5 6 10 -20 20 -34 20 -41 1z"/>
<path d="M6918 5503 c7 -3 16 -2 19 1 4 3 -2 6 -13 5 -11 0 -14 -3 -6 -6z"/>
<path d="M7810 5495 c13 -16 70 -47 70 -38 0 12 -52 53 -67 53 -12 0 -13 -3
-3 -15z"/>
<path d="M7680 5488 c0 -19 43 -98 54 -98 9 0 -1 66 -15 92 -11 21 -39 24 -39
6z"/>
<path d="M7165 5480 c-3 -5 3 -10 15 -10 12 0 18 5 15 10 -3 6 -10 10 -15 10
-5 0 -12 -4 -15 -10z"/>
<path d="M7282 5447 c2 -13 11 -36 21 -50 9 -14 17 -33 17 -42 0 -8 4 -15 9
-15 5 0 7 8 4 18 -6 25 22 49 31 26 3 -9 4 -20 1 -24 -3 -5 9 -11 27 -15 18
-4 40 -16 49 -28 l17 -20 6 21 c10 31 -10 62 -40 62 -13 0 -27 7 -30 15 -4 8
-12 15 -19 15 -7 0 -15 3 -17 8 -4 8 -65 52 -73 52 -3 0 -4 -11 -3 -23z"/>
<path d="M7763 5453 c9 -9 19 -14 23 -11 10 10 -6 28 -24 28 -15 0 -15 -1 1
-17z"/>
<path d="M7505 5381 c-6 -11 37 -61 54 -61 11 0 10 21 -4 53 -8 18 -40 23 -50
8z"/>
<path d="M4473 5373 c-8 -3 -13 -24 -13 -56 0 -33 -3 -47 -9 -39 -6 10 -13 11
-27 4 -11 -6 -51 -19 -91 -29 -43 -11 -69 -22 -65 -28 4 -6 35 -36 70 -69 l63
-59 77 7 c86 7 93 3 106 -64 15 -72 24 -85 78 -104 28 -10 65 -31 82 -47 17
-16 49 -42 71 -57 22 -15 46 -33 53 -40 8 -7 18 -10 23 -7 17 11 9 46 -13 55
-39 16 -58 36 -58 61 0 13 3 65 6 114 5 99 -10 149 -52 170 -39 19 -54 37 -66
76 -11 39 -11 39 -64 39 -29 0 -59 -6 -66 -12 -7 -7 -26 -15 -42 -16 -27 -4
-28 -2 -21 25 4 15 8 36 9 47 1 19 -30 36 -51 29z"/>
<path d="M6561 5334 c0 -11 3 -14 6 -6 3 7 2 16 -1 19 -3 4 -6 -2 -5 -13z"/>
<path d="M7308 5293 c7 -3 16 -2 19 1 4 3 -2 6 -13 5 -11 0 -14 -3 -6 -6z"/>
<path d="M7340 5286 c0 -2 7 -7 16 -10 8 -3 12 -2 9 4 -6 10 -25 14 -25 6z"/>
<path d="M7406 5271 c28 -30 343 -57 359 -31 4 6 -8 10 -29 10 -20 0 -36 5
-36 11 0 8 -5 8 -15 -1 -12 -10 -19 -10 -37 2 -16 10 -34 12 -58 7 -37 -8
-138 -4 -173 7 -17 5 -19 3 -11 -5z"/>
<path d="M7880 5216 c-6 -6 -46 -11 -90 -10 -44 0 -80 -2 -80 -6 0 -4 24 -38
53 -76 98 -126 144 -260 134 -385 -7 -82 -24 -123 -81 -198 l-45 -59 13 -53
c8 -30 12 -57 10 -61 -10 -16 -52 -7 -109 22 -32 16 -60 28 -63 25 -2 -2 0
-18 6 -34 7 -20 8 -42 1 -63 -5 -18 -9 -49 -9 -68 0 -39 -23 -80 -45 -80 -8 0
-53 18 -100 40 -47 22 -87 40 -90 40 -2 0 -3 -19 -2 -41 3 -58 -14 -59 -65 -6
l-43 45 -85 4 c-74 3 -95 8 -161 41 -77 38 -120 48 -102 25 5 -7 16 -39 23
-71 8 -33 21 -62 30 -67 13 -7 16 -20 12 -69 -3 -41 -1 -61 7 -61 14 0 14 -27
0 -32 -11 -4 -15 -90 -4 -108 9 -15 104 -74 145 -90 149 -57 273 -215 286
-363 10 -120 15 -147 28 -147 7 0 21 -9 31 -20 10 -11 24 -20 32 -20 7 0 21
-4 31 -9 9 -5 55 -23 102 -41 82 -31 136 -55 245 -106 73 -34 143 -64 149 -64
3 0 29 -11 58 -24 29 -13 78 -31 108 -41 49 -16 96 -35 197 -81 81 -37 128
-51 248 -74 78 -14 207 -51 220 -62 5 -4 30 -8 56 -8 57 0 109 -17 109 -36 0
-8 6 -14 14 -14 8 0 21 -3 30 -6 15 -6 16 101 16 1162 0 1060 -1 1166 -16
1146 -8 -12 -22 -22 -30 -22 -8 0 -14 -9 -14 -20 0 -11 -4 -20 -9 -20 -12 0
-71 -59 -71 -71 0 -5 -7 -9 -15 -9 -18 0 -65 -47 -65 -65 0 -8 -8 -15 -18 -15
-10 0 -25 -8 -33 -17 -34 -38 -94 -89 -123 -103 -17 -8 -35 -25 -41 -38 -5
-12 -14 -20 -20 -18 -5 2 -30 -16 -55 -39 -38 -35 -58 -45 -125 -60 -44 -10
-92 -24 -107 -32 -34 -17 -126 -16 -157 1 -13 7 -31 11 -40 9 -21 -5 -81 59
-81 87 0 11 -7 23 -15 26 -8 4 -15 16 -15 28 0 13 -11 33 -25 46 -14 13 -25
32 -25 42 0 11 -7 32 -15 48 -23 45 -18 170 6 170 5 0 9 13 9 29 0 16 7 36 15
45 8 8 15 22 15 30 0 9 5 16 11 16 5 0 8 4 4 9 -3 6 4 15 15 21 11 6 20 19 20
30 0 10 7 26 16 34 8 9 12 16 8 16 -4 0 1 9 11 20 10 11 25 20 33 20 9 0 12 3
8 7 -12 12 -264 11 -276 -1z"/>
<path d="M5467 5200 c-3 -8 -9 -37 -15 -65 -5 -27 -10 -54 -12 -60 -1 -5 -2
-43 -1 -82 1 -58 4 -73 16 -73 9 0 18 7 21 15 10 25 22 17 44 -25 32 -64 60
-47 60 37 0 39 -39 163 -51 163 -5 0 -9 10 -9 23 0 29 -46 88 -53 67z"/>
<path d="M6758 5146 c-43 -64 -50 -93 -18 -76 25 13 62 85 58 112 -2 15 -11 7
-40 -36z"/>
<path d="M6438 5044 c-21 -7 -42 -8 -57 -2 -13 5 -33 6 -44 2 -11 -3 -45 -7
-76 -9 -89 -3 -119 -15 -173 -64 l-51 -47 16 -99 c8 -55 27 -134 42 -176 l28
-77 72 -7 c44 -4 83 -14 101 -26 16 -10 36 -19 44 -19 8 0 42 25 75 55 33 30
67 55 76 55 9 0 22 7 29 15 7 8 25 15 40 15 23 0 29 5 33 30 4 16 20 42 36 57
32 30 73 101 65 114 -4 7 -27 -2 -63 -25 -8 -5 -26 -10 -40 -11 -14 -2 -66
-14 -116 -29 -138 -40 -205 -34 -205 19 0 16 12 26 53 43 66 27 218 72 277 82
127 22 120 19 120 61 0 41 -13 57 -34 40 -16 -13 -37 -11 -48 4 -10 14 -160
13 -200 -1z m-312 -221 c-11 -11 -19 6 -11 24 8 17 8 17 12 0 3 -10 2 -21 -1
-24z"/>
<path d="M6910 4991 c0 -5 5 -13 10 -16 6 -3 10 -2 10 4 0 5 -4 13 -10 16 -5
3 -10 2 -10 -4z"/>
<path d="M6853 4970 c-18 -9 -30 -20 -26 -24 3 -3 -1 -6 -10 -6 -9 0 -18 -4
-21 -8 -2 -4 24 -4 59 2 49 7 61 12 51 20 -8 6 -15 16 -17 22 -3 8 -14 6 -36
-6z"/>
<path d="M4210 4957 c-14 -6 -31 -17 -38 -24 -7 -7 -20 -13 -28 -13 -25 0 -14
-24 27 -58 47 -40 76 -38 121 10 36 39 38 78 4 78 -14 0 -28 5 -31 10 -8 13
-23 12 -55 -3z"/>
<path d="M5233 4743 c-51 -103 -74 -133 -104 -133 -29 0 -30 -1 -24 -41 4 -25
2 -46 -5 -55 -10 -11 -6 -20 14 -45 15 -18 25 -37 23 -43 -20 -53 -19 -56 20
-72 56 -24 76 -62 26 -49 l-28 7 30 -23 c17 -13 34 -29 38 -36 4 -7 18 -13 30
-13 18 0 19 -2 7 -10 -12 -8 -12 -10 -1 -10 14 0 113 -69 119 -82 2 -5 12 -8
21 -8 18 0 40 -22 79 -77 27 -40 28 -59 2 -73 -20 -11 -20 -12 7 -50 32 -45
38 -48 55 -20 7 11 16 20 20 20 11 0 -3 -64 -16 -72 -7 -5 -6 -22 2 -55 23
-92 34 -198 30 -279 -3 -66 -10 -94 -40 -155 -19 -41 -50 -92 -69 -113 -38
-43 -177 -150 -226 -174 -41 -20 -41 -31 -3 -45 36 -14 39 -40 8 -61 -44 -31
-107 -12 -109 32 -2 45 -11 106 -19 127 -8 22 -12 23 -47 13 -21 -5 -46 -15
-57 -20 -10 -6 -44 -14 -75 -18 -53 -7 -59 -6 -115 28 -38 23 -76 37 -107 40
-46 4 -50 3 -86 -38 -44 -48 -47 -64 -15 -68 12 -2 22 1 22 7 0 6 -5 11 -12
11 -24 0 3 13 32 15 18 2 30 -2 30 -10 0 -14 -32 -45 -47 -45 -13 0 -15 -67
-3 -75 6 -3 7 1 4 9 -7 18 11 22 21 6 12 -19 -6 -52 -23 -46 -15 5 -15 4 -2
-7 22 -19 57 -63 40 -51 -21 15 -124 19 -115 5 3 -6 1 -11 -4 -11 -6 0 -11 5
-11 11 0 5 -4 7 -10 4 -15 -9 -12 18 4 41 22 31 30 115 16 173 -11 48 -10 53
19 113 27 54 33 79 38 166 6 100 6 102 -16 102 -18 0 -20 -4 -16 -25 3 -14 7
-36 10 -49 6 -30 -5 -87 -15 -81 -17 10 -41 -9 -64 -49 -32 -55 -37 -88 -13
-92 31 -4 30 -11 -2 -22 -27 -10 -31 -16 -31 -48 0 -21 7 -64 16 -96 l17 -58
-36 -39 -36 -40 14 -46 c7 -25 20 -57 29 -69 14 -22 14 -24 -4 -29 -12 -3 -30
7 -52 27 -59 58 -108 115 -108 128 0 9 3 8 10 -2 6 -10 10 -11 10 -2 0 6 10
12 23 13 21 0 21 1 -3 10 -23 9 -23 11 -7 20 9 6 14 15 11 21 -4 7 -2 8 4 4
18 -11 37 4 21 16 -9 6 9 7 49 3 34 -4 62 -5 62 -3 0 3 -9 31 -21 64 -23 67
-27 118 -9 139 15 19 4 109 -16 126 -12 10 -13 9 -8 -6 5 -13 4 -16 -5 -10
-20 11 -102 14 -137 4 -25 -8 -37 -22 -60 -69 -29 -58 -62 -84 -49 -37 19 66
58 151 95 202 20 29 25 43 18 52 -14 17 -33 16 -48 -2 -7 -8 -20 -15 -29 -15
-9 0 -27 -10 -41 -22 -40 -37 -105 -63 -115 -48 -10 16 -35 12 -35 -5 0 -8 -9
-24 -20 -35 -21 -21 -50 -27 -50 -11 0 5 -12 23 -26 40 -21 26 -33 31 -69 31
-50 0 -72 -21 -95 -89 -11 -35 -11 -48 -1 -77 7 -20 10 -38 7 -41 -3 -4 -34
-10 -68 -15 -37 -5 -66 -14 -71 -23 -4 -8 -31 -17 -59 -21 l-52 -7 26 -21 c14
-12 28 -29 31 -38 4 -11 17 -18 32 -18 16 0 25 -6 25 -15 0 -8 9 -24 20 -35
11 -11 20 -22 20 -25 0 -3 -25 -4 -55 -4 -31 1 -57 0 -60 -2 -2 -2 3 -13 11
-24 12 -16 17 -17 23 -7 7 11 11 10 24 -3 26 -25 11 -47 -28 -39 -22 4 -37 1
-48 -10 -8 -9 -23 -16 -31 -16 -9 0 -16 -4 -16 -10 0 -16 -32 -11 -46 8 -13
16 -13 16 -14 -1 0 -14 -6 -16 -37 -12 -63 9 -83 -23 -29 -45 15 -6 16 -9 5
-9 -9 -1 -19 -7 -22 -15 -5 -12 -14 -11 -57 5 -27 10 -60 19 -71 19 -18 0 -17
3 9 25 17 14 35 25 41 25 12 0 31 32 31 53 0 33 -30 24 -80 -23 -40 -38 -60
-49 -97 -55 -39 -6 -49 -4 -60 11 -11 15 -10 20 2 34 18 20 17 90 -1 90 -7 0
-19 -7 -28 -15 -16 -16 -46 -20 -46 -6 0 5 10 11 21 14 18 5 21 11 15 38 -3
17 -6 40 -6 50 0 34 -14 20 -42 -41 -31 -66 -34 -80 -17 -80 13 0 6 -25 -7
-25 -41 -3 -84 -51 -68 -77 4 -6 -6 -21 -22 -34 -23 -18 -25 -23 -11 -24 20 0
22 -11 5 -28 -9 -9 -7 -12 10 -12 13 0 22 -6 22 -15 0 -13 -7 -15 -35 -9 -23
4 -35 2 -35 -5 0 -6 11 -11 25 -11 34 0 32 -18 -2 -22 -16 -2 -27 -8 -25 -15
1 -7 -5 -13 -13 -13 -8 0 -15 -4 -15 -10 0 -13 12 -13 46 0 19 8 30 8 38 0 5
-5 20 -10 33 -10 13 0 23 -5 23 -11 0 -7 -11 -8 -30 -4 -26 6 -30 4 -30 -14 0
-24 59 -44 92 -32 19 7 19 8 3 25 -21 20 -19 22 22 30 18 4 34 3 38 -3 3 -6
14 -11 23 -10 14 0 13 2 -3 8 -18 8 -16 10 15 18 19 6 34 15 32 22 -1 6 5 11
14 11 8 0 12 -4 9 -10 -8 -13 11 -13 36 1 12 6 25 7 32 2 7 -5 35 -6 62 -3 31
3 45 8 38 13 -27 17 -13 42 37 64 36 16 48 26 44 38 -5 12 3 15 45 15 28 0 51
-4 51 -10 0 -5 -7 -10 -15 -10 -8 0 -15 -4 -15 -10 0 -5 6 -10 13 -10 6 0 22
-3 35 -6 16 -5 22 -3 20 7 -2 11 20 14 117 14 132 0 163 9 199 59 15 21 18 30
9 33 -7 3 -13 9 -13 15 0 6 6 8 14 5 10 -4 16 2 18 16 2 16 11 22 31 24 15 1
40 11 56 22 48 34 59 23 17 -16 -33 -30 -37 -39 -28 -54 7 -10 9 -26 5 -35 -5
-14 -2 -16 20 -12 17 3 28 0 32 -10 5 -13 8 -12 24 2 16 15 19 15 31 1 10 -12
16 -13 26 -4 8 6 11 15 8 20 -3 5 5 9 18 9 13 1 34 7 48 15 36 21 73 18 108
-7 114 -83 143 -103 195 -132 52 -29 56 -34 42 -46 -14 -11 -16 -11 -13 1 4
18 -39 14 -61 -5 -9 -8 -26 -17 -38 -20 -13 -4 -23 -11 -23 -16 0 -6 -22 -20
-50 -32 -27 -13 -52 -31 -56 -40 -3 -10 -10 -18 -15 -18 -6 0 -7 -5 -4 -11 4
-5 -7 -15 -24 -22 -27 -10 -31 -15 -26 -38 5 -21 2 -27 -17 -32 -29 -8 -38 1
-15 17 18 14 23 36 9 36 -5 0 -17 -9 -27 -20 -10 -12 -24 -19 -30 -16 -7 2
-18 1 -25 -4 -9 -6 -7 -9 8 -14 14 -5 18 -12 14 -28 -4 -17 -2 -20 11 -15 11
4 17 1 17 -9 0 -8 -6 -14 -12 -13 -7 1 -21 -1 -30 -5 -10 -5 -23 -6 -30 -4
-15 5 -51 -29 -43 -41 3 -5 -6 -8 -19 -7 -17 2 -26 -3 -30 -17 -4 -17 -7 -18
-20 -7 -13 10 -16 10 -16 -5 0 -9 -6 -15 -12 -12 -7 2 -18 -3 -24 -11 -6 -8
-23 -14 -37 -14 -15 0 -27 -5 -27 -10 0 -5 4 -7 9 -3 18 10 20 -11 3 -26 -49
-42 -135 -64 -130 -33 2 10 -3 19 -9 21 -7 3 -13 0 -13 -6 0 -11 -35 -51 -45
-51 -2 0 -2 7 1 15 4 8 2 15 -4 15 -5 0 -12 -7 -16 -15 -3 -8 -9 -14 -13 -13
-4 1 -21 -2 -36 -7 -21 -6 -27 -12 -24 -26 4 -15 0 -19 -18 -19 -13 0 -31 -3
-41 -7 -12 -5 -15 -3 -9 6 6 10 0 11 -26 6 -43 -9 -45 -11 -28 -31 13 -16 11
-17 -23 -10 -30 5 -38 4 -38 -7 0 -8 -7 -18 -16 -21 -10 -4 -13 -2 -8 6 9 14
-13 2 -41 -23 -15 -13 -43 -20 -100 -24 -132 -10 -148 -13 -157 -29 -12 -21
-29 -11 -21 11 5 13 2 15 -11 10 -10 -4 -22 -7 -27 -7 -5 0 -9 -4 -9 -10 0 -5
7 -6 17 -3 10 4 14 2 10 -4 -4 -6 -2 -13 3 -15 6 -2 -8 -4 -32 -4 -24 0 -35 1
-25 4 20 4 23 22 3 22 -8 0 -22 3 -31 6 -11 5 -18 0 -22 -15 -3 -11 -10 -21
-15 -21 -5 0 -7 4 -4 9 3 5 -3 11 -13 14 -26 6 -72 -3 -66 -14 3 -4 13 -5 22
-2 11 4 14 2 11 -8 -6 -18 -45 -24 -64 -9 -11 10 -19 9 -40 -5 -14 -9 -33 -14
-42 -10 -15 6 -13 10 9 28 15 12 30 32 34 45 3 12 15 27 26 32 26 14 24 40 -2
40 -18 0 -19 -2 -9 -15 11 -13 8 -15 -16 -16 -16 0 -23 -3 -16 -6 6 -2 12 -12
12 -20 0 -13 -3 -13 -16 -2 -13 10 -17 10 -24 0 -6 -11 -10 -10 -17 4 -10 16
-12 16 -47 0 -37 -18 -55 -35 -37 -35 5 0 13 5 16 10 10 16 45 12 39 -4 -7
-19 16 -32 27 -15 4 7 11 10 15 7 3 -4 -1 -15 -11 -24 -9 -10 -20 -13 -23 -8
-4 5 -23 9 -42 9 -19 0 -38 4 -42 10 -5 6 -8 4 -8 -6 0 -35 -31 -47 -115 -44
-44 1 -72 1 -62 -2 23 -6 21 -17 -5 -31 -31 -16 -83 -11 -83 8 0 10 8 14 28
12 15 -2 27 1 27 7 0 6 -9 11 -20 11 -11 0 -20 5 -20 11 0 7 -12 -1 -27 -17
-22 -24 -24 -29 -10 -32 19 -4 22 -18 7 -27 -6 -3 -13 1 -16 9 -7 19 -41 21
-47 4 -3 -10 -7 -10 -19 0 -13 10 -17 10 -22 -4 -3 -8 -6 -23 -6 -32 1 -21 64
-62 96 -62 13 0 24 -4 24 -9 0 -13 -93 0 -112 16 -11 10 -18 11 -23 4 -8 -14
-35 -14 -35 -1 0 6 8 10 17 10 9 0 13 3 10 7 -4 3 -2 12 4 19 12 14 3 54 -11
54 -5 0 -7 7 -4 15 4 8 1 15 -5 15 -6 0 -10 -6 -8 -12 1 -9 -11 -12 -38 -11
-32 2 -35 1 -15 -6 23 -7 21 -8 -17 -14 -23 -4 -48 -4 -56 -1 -9 3 -25 1 -36
-5 -16 -9 -22 -8 -30 6 -8 14 -10 9 -6 -22 4 -39 3 -39 -12 -18 -16 24 -51 33
-36 11 18 -31 11 -35 -34 -22 -42 13 -48 12 -79 -7 -19 -11 -34 -25 -34 -31 0
-6 -7 -7 -16 -4 -14 5 -70 -18 -84 -35 -3 -4 -16 -10 -30 -14 -14 -4 -33 -17
-42 -29 -15 -18 -20 -19 -38 -8 -24 14 -42 8 -34 -12 3 -8 0 -17 -6 -21 -7 -4
-13 1 -16 12 -6 22 -27 23 -63 4 -19 -11 -21 -15 -10 -23 10 -6 7 -8 -12 -6
-29 3 -59 -17 -59 -39 0 -7 6 -13 14 -11 8 2 15 -1 15 -7 0 -5 -10 -9 -23 -7
-14 2 -26 -3 -29 -12 -4 -9 -11 -16 -17 -16 -7 0 -8 5 -3 13 12 20 15 57 3 57
-5 0 -10 -5 -10 -11 0 -6 -7 -17 -15 -26 -13 -13 -18 -13 -32 -1 -15 11 -16
10 -11 -9 5 -19 4 -20 -13 -10 -16 10 -21 9 -29 -3 -5 -8 -6 -18 -4 -22 3 -4
-5 -8 -17 -8 -17 0 -20 -3 -12 -11 12 -12 73 -8 108 6 15 6 17 5 9 -4 -6 -7
-36 -16 -65 -20 -54 -8 -159 -55 -159 -72 0 -5 -18 -9 -40 -9 -29 0 -42 -5
-50 -20 -6 -11 -20 -20 -30 -20 -11 0 -20 -4 -20 -10 0 -5 -10 -10 -22 -10
-12 0 -30 -7 -40 -17 -17 -15 -18 -15 -18 1 0 14 -8 17 -37 15 -26 -2 -37 1
-36 9 5 22 -32 12 -64 -18 -18 -17 -43 -30 -58 -30 -14 0 -28 -7 -31 -15 -4
-8 -12 -15 -19 -15 -7 0 -20 -11 -29 -25 -9 -14 -22 -25 -29 -25 -6 -1 -27
-14 -46 -30 -19 -16 -38 -27 -43 -24 -5 4 -6 24 -3 47 7 36 6 39 -7 26 -9 -8
-21 -31 -29 -52 -8 -24 -19 -37 -31 -37 -11 0 -18 -7 -18 -18 0 -9 -9 -23 -20
-30 -28 -17 -28 -99 0 -135 11 -14 20 -32 20 -40 0 -9 3 -17 8 -19 12 -5 72
-86 72 -97 0 -6 14 -24 30 -39 23 -22 30 -38 30 -66 0 -20 5 -36 10 -36 6 0
10 -7 10 -15 0 -8 -21 -23 -46 -35 -49 -21 -114 -27 -114 -10 0 6 -45 10 -112
11 -62 0 -134 4 -161 8 l-47 8 0 -299 0 -298 640 0 c404 0 640 4 640 10 0 9 7
18 85 105 25 27 45 53 45 57 0 5 7 8 15 8 8 0 15 4 15 9 0 5 8 12 17 15 10 3
29 13 43 21 32 19 101 19 145 1 19 -8 35 -13 35 -10 0 2 10 -2 23 -10 12 -8
53 -20 90 -26 38 -6 76 -15 85 -20 48 -25 111 -41 156 -39 79 3 111 -8 160
-58 25 -25 46 -50 46 -54 0 -5 1496 -9 3430 -9 l3430 0 0 755 0 755 -30 0
c-24 0 -30 -4 -30 -21 0 -20 -4 -21 -47 -16 -44 5 -113 -15 -113 -33 0 -13
-155 2 -171 16 -12 11 -16 31 -14 82 l1 67 63 65 c35 36 67 75 72 88 5 12 17
26 26 29 10 4 32 22 51 40 18 18 36 33 40 33 4 0 12 10 17 23 6 12 20 23 33
25 12 2 22 8 22 13 0 5 17 6 40 3 l41 -7 -3 72 -3 72 -90 41 c-49 22 -138 58
-196 78 -94 34 -245 93 -304 120 -37 16 -160 63 -190 72 -44 13 -251 68 -320
85 -33 8 -69 18 -80 23 -59 24 -168 57 -230 70 -22 5 -65 16 -95 25 -30 9 -75
21 -100 27 -174 38 -247 76 -252 131 -3 28 -7 32 -35 35 -18 2 -42 -2 -53 -8
-31 -16 -83 4 -114 44 -14 18 -41 41 -61 50 -34 17 -38 17 -72 1 -28 -14 -48
-16 -92 -10 -82 12 -162 7 -189 -11 -13 -8 -54 -27 -90 -41 -71 -26 -62 -27
-176 8 -16 5 -37 9 -48 9 -10 0 -32 9 -47 21 -32 23 -83 23 -176 -3 -78 -21
-85 -28 -92 -89 -3 -29 -16 -77 -29 -105 -13 -28 -24 -57 -24 -65 0 -8 -13
-20 -29 -27 -36 -16 -62 -3 -78 39 -6 16 -20 32 -30 35 -36 13 -63 47 -63 78
0 44 11 56 56 63 53 8 72 31 90 110 17 71 29 103 84 215 34 71 54 88 69 60 8
-16 -6 -98 -26 -142 -9 -21 -4 -42 14 -62 28 -31 58 -21 118 37 32 30 64 55
71 55 8 0 14 5 14 10 0 6 11 10 23 10 13 0 27 3 30 7 4 3 37 8 75 9 37 2 81 6
97 9 35 7 75 37 75 57 0 8 -20 53 -45 100 -48 92 -54 118 -30 118 9 0 26 7 39
15 13 9 30 14 37 13 7 -2 15 5 17 15 3 16 -30 55 -86 100 -28 22 -38 22 -55
-3 -23 -32 -47 -5 -54 61 -5 49 -3 58 21 86 14 17 26 36 26 41 0 6 11 24 24
39 24 29 25 32 16 122 -9 97 -25 136 -63 150 -24 10 -77 59 -77 72 0 14 -39
49 -55 49 -8 0 -26 -20 -41 -45 l-26 -45 -78 0 c-57 0 -81 4 -90 15 -17 21
-30 18 -62 -10 -34 -29 -38 -74 -8 -93 12 -7 19 -16 16 -21 -3 -4 -6 -24 -8
-44 -1 -21 -7 -37 -14 -37 -6 0 -14 -15 -17 -32 -3 -18 -13 -75 -22 -127 -10
-51 -26 -119 -36 -149 -11 -31 -29 -121 -40 -200 -23 -161 -40 -212 -68 -212
-14 0 -19 9 -23 43 -8 70 10 405 27 517 24 159 33 229 39 300 3 36 10 89 16
119 5 29 10 55 10 57 0 1 12 4 28 6 22 2 27 7 24 28 -2 16 7 37 23 55 l25 30
0 -42 c0 -44 19 -59 37 -29 12 21 35 24 73 11 40 -14 106 -7 136 15 11 8 24
27 28 43 9 36 37 35 59 -3 12 -20 26 -30 42 -30 13 0 26 -4 29 -9 3 -5 18 -12
32 -15 15 -4 51 -23 82 -42 42 -27 63 -35 86 -31 17 2 56 1 88 -3 48 -7 67
-17 133 -69 42 -34 84 -68 92 -77 44 -43 47 21 15 287 -18 154 -23 173 -61
253 -39 81 -43 86 -73 87 -18 1 -38 1 -44 0 -7 -1 -14 5 -18 14 -6 16 -31 20
-40 7 -3 -5 6 -26 20 -46 17 -25 24 -47 21 -63 -4 -20 -1 -24 14 -20 13 4 19
0 19 -11 0 -11 -26 -29 -71 -50 -66 -30 -75 -32 -148 -26 -55 5 -80 3 -86 -5
-5 -9 -10 -9 -22 0 -10 9 -45 12 -108 10 l-94 -2 -43 41 c-30 29 -50 40 -65
37 -21 -4 -22 0 -25 61 -2 36 -8 67 -14 69 -6 2 -37 -30 -68 -72 -57 -76 -109
-114 -140 -102 -8 3 -22 22 -30 40 -19 46 -30 51 -105 49 -49 -2 -70 -7 -86
-22 -27 -25 -42 -25 -55 1 -11 19 -13 19 -29 5 -27 -25 -88 -10 -107 26 -14
27 -18 29 -58 23 -53 -8 -71 9 -37 36 11 10 27 19 33 21 8 3 5 15 -10 36 -13
17 -29 48 -36 69 -17 50 -31 52 -53 6z m1457 -183 c0 -5 -5 -10 -11 -10 -5 0
-7 5 -4 10 3 6 8 10 11 10 2 0 4 -4 4 -10z m-1294 -57 c7 -10 10 -21 8 -25 -3
-5 0 -8 5 -8 6 0 11 -7 11 -15 0 -20 -19 -19 -26 0 -4 9 -11 14 -18 13 -6 -1
-21 2 -34 6 -13 4 -26 6 -29 3 -6 -6 27 -59 43 -69 6 -4 23 -27 39 -52 28 -45
51 -56 116 -56 18 0 29 -5 29 -14 0 -10 -17 -17 -52 -21 -49 -6 -58 -4 -123
34 -38 23 -76 39 -83 36 -7 -3 -24 6 -38 20 -26 26 -26 44 2 112 23 57 118 79
150 36z m264 -303 c0 -5 -18 -44 -40 -86 -21 -41 -42 -91 -46 -110 -8 -43 -19
-44 -21 -1 -1 17 -5 56 -9 84 -6 49 -5 53 18 62 13 5 32 21 43 35 19 25 55 36
55 16z m-1651 -1039 c9 -6 10 -11 2 -15 -15 -10 -14 -27 2 -25 32 4 37 -1 19
-21 -9 -11 -19 -30 -22 -43 -7 -27 -60 -38 -60 -13 0 15 11 20 38 17 6 -1 12
5 12 14 0 8 -4 15 -10 15 -5 0 -10 7 -10 15 0 9 -9 15 -22 15 l-21 0 23 25
c26 28 29 29 49 16z m111 -63 c-11 -12 -20 -27 -20 -34 0 -21 -29 -24 -40 -4
-14 27 -14 28 28 48 45 23 59 18 32 -10z m-290 -3 c-12 -15 -30 -12 -30 5 0 8
31 19 39 13 2 -1 -2 -9 -9 -18z m-90 -15 c12 -8 12 -10 -3 -16 -9 -3 -25 -3
-34 0 -15 6 -15 8 -3 16 8 6 17 10 20 10 3 0 12 -4 20 -10z m180 -24 c0 -3 -4
-8 -10 -11 -5 -3 -10 -1 -10 4 0 6 5 11 10 11 6 0 10 -2 10 -4z m868 -15 c22
-18 31 -48 12 -36 -6 4 -26 -3 -45 -15 l-35 -22 6 34 c4 18 14 39 22 46 19 15
15 15 40 -7z m-103 -11 c-3 -5 -11 -10 -16 -10 -6 0 -7 5 -4 10 3 6 11 10 16
10 6 0 7 -4 4 -10z m1075 -34 c0 -19 -4 -38 -10 -41 -6 -4 -10 10 -10 34 0 23
5 41 10 41 6 0 10 -15 10 -34z m-1464 -94 c-10 -10 -29 15 -21 28 6 9 10 8 17
-4 6 -10 7 -20 4 -24z m-553 -18 c-4 -12 -8 -13 -14 -3 -9 15 -2 32 11 24 5
-3 6 -13 3 -21z m1413 -16 c-3 -18 -8 -54 -11 -80 -7 -56 -12 -61 -45 -42 -14
7 -19 13 -12 14 22 0 13 18 -14 24 -20 5 -24 11 -18 29 7 24 38 57 53 57 5 0
11 7 15 15 3 8 12 15 21 15 12 0 15 -7 11 -32z m-514 4 c-1 -8 2 -11 7 -8 15
10 25 -14 12 -27 -9 -9 -14 -9 -20 1 -4 7 -14 12 -21 10 -8 -2 -14 2 -15 7 0
6 -4 16 -9 23 -6 10 -1 13 20 10 18 -2 28 -8 26 -16z m-838 -9 c-8 -8 -21 -12
-29 -9 -25 9 -17 21 14 22 26 1 28 -1 15 -13z m723 -5 c-3 -8 -6 -5 -6 6 -1
11 2 17 5 13 3 -3 4 -12 1 -19z m204 0 c-4 -13 -7 -27 -5 -33 5 -14 -49 -108
-64 -113 -7 -2 -1 13 13 33 41 62 33 74 -16 23 -17 -18 -27 -26 -23 -18 16 32
92 130 100 130 2 0 0 -10 -5 -22z m63 -57 c9 -12 8 -13 -8 -8 -17 7 -18 3 -13
-40 3 -27 3 -40 1 -30 -5 16 -7 15 -26 -5 -11 -13 -17 -17 -13 -11 4 8 1 11
-9 7 -16 -6 -32 -64 -23 -86 3 -7 6 -2 6 12 1 14 6 32 11 40 7 11 10 6 11 -20
0 -29 2 -31 9 -15 5 11 9 15 9 9 1 -6 -6 -28 -14 -48 -26 -63 -44 -154 -31
-159 7 -3 6 -9 -5 -18 -9 -8 -19 -36 -23 -64 -3 -27 -14 -76 -23 -107 -14 -48
-21 -58 -40 -58 -12 0 -24 -4 -27 -8 -3 -5 -32 -17 -65 -27 -57 -17 -62 -17
-96 0 -51 23 -115 83 -115 106 0 11 -7 19 -16 19 -9 0 -14 -6 -11 -12 2 -7 -3
-18 -11 -24 -13 -9 -10 -15 16 -39 47 -42 45 -45 -30 -47 -20 0 -31 -8 -43
-35 -10 -20 -13 -38 -9 -42 16 -11 15 -51 -1 -51 -19 0 -45 -62 -45 -107 0
-18 -7 -45 -16 -58 -19 -29 -15 -57 15 -127 l20 -48 53 0 c29 1 79 7 110 14
31 8 59 11 62 8 9 -9 106 -9 112 -1 9 16 -8 60 -22 55 -23 -9 -24 10 -1 31 22
21 66 65 154 155 44 44 46 49 34 74 -16 37 -26 147 -14 168 8 15 11 14 23 -9
7 -14 19 -25 26 -25 13 0 8 -36 -9 -57 -6 -9 -6 -13 1 -13 13 0 82 80 82 96 0
6 20 28 45 48 49 41 55 36 26 -21 -10 -21 -33 -68 -51 -105 -18 -37 -39 -73
-46 -79 -8 -6 -14 -16 -14 -21 0 -6 7 -5 15 2 23 19 31 3 10 -20 -27 -29 -10
-24 21 6 14 15 35 47 45 72 11 25 22 42 25 39 3 -3 -4 -28 -16 -56 -12 -28
-20 -57 -17 -65 4 -10 1 -13 -9 -9 -7 3 -14 0 -14 -6 0 -6 5 -11 10 -11 18 0
11 -17 -24 -55 -33 -35 -39 -54 -50 -152 -3 -21 0 -31 7 -26 7 4 8 -8 3 -38
l-7 -43 27 24 c25 23 26 24 15 3 -6 -12 -7 -24 -2 -27 5 -3 21 33 36 80 16 46
32 87 36 90 7 4 -30 -125 -52 -183 -5 -14 -9 -26 -9 -28 0 -4 42 3 45 7 6 10
45 111 60 156 9 28 19 52 21 52 2 0 2 -19 -2 -42 -4 -32 -3 -39 5 -28 8 11 11
-1 11 -51 0 -65 0 -65 51 -118 35 -37 49 -59 46 -72 -3 -12 -1 -17 5 -13 6 4
9 3 6 -2 -25 -56 -32 -62 -62 -63 -17 0 -71 -2 -120 -3 -85 -3 -91 -2 -118 23
-15 15 -28 31 -28 37 0 18 -26 32 -74 37 -26 3 -58 10 -72 15 -13 5 -50 14
-82 19 -116 21 -238 50 -290 70 -36 15 -65 19 -90 15 -28 -4 -41 -1 -54 13
-45 48 -58 63 -58 68 0 3 -13 20 -29 38 -52 57 -71 80 -71 86 0 6 -46 62 -77
94 -31 32 -113 10 -113 -31 0 -9 -14 -30 -31 -47 -50 -48 -79 -101 -79 -143 0
-63 -61 -105 -137 -95 -24 3 -50 0 -64 -8 -13 -7 -90 -18 -170 -24 -115 -9
-155 -16 -193 -35 -57 -27 -256 -221 -256 -249 0 -29 47 -56 76 -42 21 9 24 8
24 -10 0 -11 -4 -18 -9 -15 -4 3 -16 -3 -26 -14 -10 -11 -24 -20 -32 -20 -20
0 -151 -67 -204 -105 -25 -18 -57 -36 -70 -39 -40 -12 -134 -49 -139 -56 -3
-3 -21 -12 -40 -20 -19 -7 -102 -46 -185 -86 -231 -112 -285 -129 -285 -90 0
10 34 46 44 46 7 0 96 91 96 97 0 4 9 17 21 29 11 12 22 28 23 35 2 8 10 31
20 51 9 21 16 51 16 68 0 37 25 100 39 100 6 0 11 9 11 20 0 28 43 44 114 41
63 -3 156 15 156 30 0 5 6 9 13 9 6 0 46 18 87 40 41 21 89 46 105 54 45 24
176 153 175 173 -1 4 18 12 42 19 81 23 132 45 169 75 20 16 43 29 50 29 8 0
55 15 104 34 112 43 194 70 349 115 38 11 76 27 85 35 16 14 313 116 339 116
7 0 39 15 70 33 31 18 77 41 102 51 38 14 50 25 68 64 12 26 22 53 22 60 0 6
4 12 9 12 5 0 12 11 15 25 4 14 13 25 21 25 9 0 12 6 8 16 -7 19 36 66 55 59
12 -4 12 -2 3 8 -9 11 -8 17 4 27 8 7 15 18 15 24 0 7 30 44 68 83 56 60 71
71 95 68 15 -2 25 0 22 6 -8 11 43 59 63 59 8 0 12 -6 9 -13 -3 -8 4 -12 22
-11 14 1 32 3 39 3 7 1 22 21 33 45 10 24 26 46 34 50 8 3 15 14 15 24 0 11 7
25 15 32 8 7 16 24 16 39 1 21 2 22 6 6 3 -11 10 -26 17 -34z m-257 2 c-3 -10
-5 -4 -5 12 0 17 2 24 5 18 2 -7 2 -21 0 -30z m579 -109 c-3 -9 -6 -21 -6 -28
0 -16 -67 -118 -84 -128 -20 -11 -15 45 6 69 9 10 17 21 17 26 1 4 11 23 23
42 23 35 56 49 44 19z m-359 -16 c-3 -8 -6 -5 -6 6 -1 11 2 17 5 13 3 -3 4
-12 1 -19z m1668 -46 c6 -4 20 -27 33 -51 l22 -44 -22 -16 c-25 -18 -114 -50
-139 -51 -9 0 -24 9 -33 19 -17 18 -16 20 9 38 59 41 87 67 96 90 9 24 17 28
34 15z m-1685 -98 c0 -8 -4 -12 -10 -9 -5 3 -10 10 -10 16 0 5 5 9 10 9 6 0
10 -7 10 -16z m249 -26 c-14 -77 -44 -161 -58 -166 -11 -4 -12 1 -7 19 4 13 8
33 7 43 0 10 7 28 15 40 16 24 19 40 4 31 -6 -3 -7 1 -4 9 3 9 10 14 14 11 5
-3 11 8 15 25 10 47 23 35 14 -12z m-64 -42 c0 -13 -3 -22 -7 -19 -5 2 -8 -2
-8 -10 0 -25 -33 -117 -41 -117 -5 0 -6 -6 -3 -13 2 -7 -4 -22 -16 -32 -20
-18 -20 -18 -20 4 0 12 9 39 20 61 24 47 25 54 5 46 -10 -3 -15 1 -15 13 0 11
-3 26 -6 35 -5 12 0 16 20 16 23 0 26 -3 21 -27 -4 -24 -3 -23 11 7 13 29 33
60 38 60 0 0 1 -11 1 -24z m-195 -47 c-7 -11 -14 -18 -17 -15 -3 3 0 12 7 21
18 21 23 19 10 -6z m15 -39 c-20 -29 -34 -58 -32 -65 3 -6 -1 -19 -9 -30 -14
-18 -14 -18 -14 1 0 41 21 89 52 119 18 18 34 31 36 30 1 -1 -14 -26 -33 -55z
m90 -29 c-14 -14 -73 -26 -60 -13 6 5 19 12 30 15 34 8 40 8 30 -2z m127 -23
c-8 -8 -9 -4 -5 13 4 13 8 18 11 10 2 -7 -1 -18 -6 -23z m-26 -55 c-8 -72 -26
-143 -36 -143 -4 0 -2 27 5 60 14 65 7 79 -14 28 -7 -18 -15 -28 -17 -22 -3 6
6 37 20 67 17 39 21 57 13 61 -7 2 -1 5 12 5 23 1 24 -1 17 -56z m21 -35 c-3
-8 -6 -5 -6 6 -1 11 2 17 5 13 3 -3 4 -12 1 -19z m-12 -70 c-11 -41 -39 -103
-49 -110 -19 -13 -18 1 3 39 11 21 25 50 31 66 11 32 24 36 15 5z m-60 -8 c3
-5 -3 -10 -14 -10 -12 0 -21 5 -21 10 0 6 6 10 14 10 8 0 18 -4 21 -10z m-5
-180 c-6 -12 -9 -24 -7 -27 3 -3 13 9 22 27 9 18 19 29 22 26 6 -6 -75 -146
-91 -157 -5 -4 0 -9 10 -11 18 -5 18 -5 0 -13 -32 -14 -36 15 -8 59 15 23 31
44 35 47 5 4 5 9 -1 13 -6 3 -4 23 7 52 11 32 17 39 19 25 2 -11 -2 -30 -8
-41z m46 -17 c-3 -10 -15 -63 -26 -118 -21 -102 -59 -215 -72 -215 -11 0 -10
3 10 52 11 24 29 84 41 133 31 130 41 165 47 165 3 0 3 -8 0 -17z m-54 -105
c-8 -8 -9 -4 -5 13 4 13 8 18 11 10 2 -7 -1 -18 -6 -23z m-2200 -28 c6 0 6 -6
-2 -15 -7 -8 -17 -15 -23 -15 -6 0 -18 -7 -28 -16 -10 -9 -24 -14 -31 -11 -8
3 -2 9 15 17 16 8 27 21 27 33 0 13 5 17 16 13 9 -3 20 -6 26 -6z m2141 -27
c2 -5 -2 -19 -9 -33 l-14 -25 0 33 c0 29 13 43 23 25z m-2683 -12 c0 -12 -20
-25 -27 -18 -7 7 6 27 18 27 5 0 9 -4 9 -9z m425 -1 c3 -5 2 -10 -4 -10 -5 0
-18 -3 -28 -7 -16 -6 -16 -5 -4 10 15 19 27 22 36 7z m-565 -10 c0 -5 -7 -10
-16 -10 -8 0 -12 5 -9 10 3 6 10 10 16 10 5 0 9 -4 9 -10z m90 0 c0 -5 -7 -7
-15 -4 -8 4 -15 8 -15 10 0 2 7 4 15 4 8 0 15 -4 15 -10z m-132 -18 c6 -18
-15 -14 -22 4 -4 10 -1 14 6 12 6 -2 14 -10 16 -16z m552 4 c0 -2 -7 -7 -16
-10 -8 -3 -12 -2 -9 4 6 10 25 14 25 6z m-690 -36 c0 -5 -9 -10 -21 -10 -11 0
-17 5 -14 10 3 6 13 10 21 10 8 0 14 -4 14 -10z m635 -10 c-3 -5 -15 -10 -26
-10 -10 0 -19 -4 -19 -10 0 -5 -7 -7 -16 -3 -12 4 -11 8 8 18 28 16 62 19 53
5z m-508 -6 c-3 -3 -12 -4 -19 -1 -8 3 -5 6 6 6 11 1 17 -2 13 -5z m400 -10
c-3 -3 -12 -4 -19 -1 -8 3 -5 6 6 6 11 1 17 -2 13 -5z m-621 -32 c-4 -3 -14 2
-24 12 -16 18 -16 18 6 6 13 -6 21 -14 18 -18z m-56 -32 c0 -5 -4 -10 -10 -10
-5 0 -10 5 -10 10 0 6 5 10 10 10 6 0 10 -4 10 -10z m2443 -113 c4 3 7 3 7 0
0 -3 -8 -11 -18 -16 -14 -7 -18 -6 -18 9 0 13 4 16 12 10 6 -6 14 -7 17 -3z
m609 -128 c18 -10 19 -17 13 -76 -7 -65 -65 -213 -84 -213 -4 0 -18 -34 -31
-76 -17 -58 -20 -86 -14 -122 9 -59 6 -81 -15 -107 -22 -27 -40 -21 -76 25
-21 28 -38 39 -57 40 -15 0 -33 7 -42 15 -9 10 -34 15 -71 15 l-56 0 3 35 c1
20 10 44 20 55 10 11 18 24 18 30 0 5 3 10 8 10 4 0 18 10 32 23 14 13 66 48
115 78 74 46 95 64 117 105 15 27 28 64 28 82 0 17 5 32 10 32 6 0 10 5 10 11
0 9 38 48 48 49 2 0 12 -5 24 -11z m1535 -67 c27 -18 55 -32 60 -32 6 0 13 -7
17 -15 3 -9 18 -15 34 -15 16 0 42 -4 58 -9 16 -5 49 -14 74 -21 25 -7 56 -16
70 -21 14 -4 79 -15 145 -24 199 -26 440 -74 470 -95 6 -3 26 -7 45 -8 73 -4
256 -52 340 -89 89 -39 102 -47 114 -68 6 -11 16 -23 21 -28 12 -9 -196 -6
-210 3 -5 4 -36 10 -68 14 -32 3 -76 15 -97 26 -39 20 -120 28 -120 11 0 -5
-18 -11 -40 -15 -22 -3 -40 -10 -40 -14 0 -5 -23 -19 -51 -32 l-51 -24 -66 18
c-156 43 -144 42 -219 6 -37 -18 -79 -38 -93 -45 -14 -7 -63 -25 -109 -41 -78
-26 -84 -27 -96 -11 -7 9 -17 17 -24 17 -6 0 -11 5 -11 10 0 6 5 10 10 10 16
0 12 42 -7 62 -9 10 -24 18 -33 18 -10 0 -26 11 -36 25 -10 14 -24 25 -31 25
-7 0 -24 11 -38 24 -20 19 -27 36 -30 78 -3 46 -7 54 -28 62 -42 15 -113 -20
-215 -106 -62 -53 -100 -78 -118 -78 -14 0 -35 -5 -46 -11 -15 -8 -19 -8 -14
0 5 7 -8 11 -38 11 l-46 0 0 -46 c0 -30 -12 -74 -35 -127 -19 -45 -36 -97 -37
-114 -1 -19 -8 -33 -15 -33 -7 0 -12 3 -12 8 4 24 -4 32 -35 32 -42 0 -78 41
-102 117 -15 48 -16 69 -5 201 10 127 33 257 56 314 13 33 58 53 130 58 39 3
172 5 296 4 l227 0 49 -32z m-4763 3 c-10 -8 -26 -14 -34 -15 -8 0 -4 6 10 14
34 19 48 20 24 1z m-64 -19 c0 -2 -7 -7 -16 -10 -8 -3 -12 -2 -9 4 6 10 25 14
25 6z m23 -521 c4 -8 23 -23 42 -35 25 -15 35 -29 35 -46 0 -21 3 -23 19 -14
11 5 38 10 60 10 30 0 40 -4 43 -17 5 -27 -37 -83 -90 -121 -148 -106 -336
-222 -437 -270 -22 -10 -46 -26 -54 -35 -7 -10 -18 -17 -23 -17 -10 0 -62 -35
-98 -68 -41 -37 -107 -72 -135 -72 l-26 0 22 31 c12 18 35 39 51 48 83 46 187
119 180 126 -4 5 -2 5 4 2 7 -4 26 9 44 30 l33 37 -23 8 c-21 8 -22 12 -15 56
9 58 9 119 0 194 -4 31 -4 77 -1 101 l7 44 62 16 c75 20 287 14 300 -8z m1310
-235 c9 -11 17 -36 17 -55 0 -30 -3 -35 -23 -35 -16 0 -27 10 -38 37 -15 33
-15 38 0 54 21 23 23 23 44 -1z m4805 -69 c38 -16 59 -62 46 -99 -9 -24 -15
-27 -51 -26 -51 1 -113 43 -113 78 0 53 53 74 118 47z m-1626 -81 c12 -11 27
-20 34 -20 7 0 17 -19 22 -42 8 -40 7 -44 -18 -55 -17 -7 -47 -9 -90 -4 -53 7
-67 12 -86 37 -20 25 -22 31 -10 49 34 51 112 69 148 35z"/>
<path d="M4603 2573 c-19 -7 -16 -31 6 -43 25 -13 31 -13 31 0 0 6 -6 10 -14
10 -9 0 -12 7 -9 20 6 21 5 21 -14 13z"/>
<path d="M4647 2509 c-4 -16 -2 -17 14 -8 23 12 23 15 5 22 -8 3 -16 -2 -19
-14z"/>
<path d="M4612 2438 c-26 -57 -49 -86 -59 -73 -5 6 -23 11 -40 13 -28 3 -33 0
-33 -17 0 -13 7 -21 18 -22 67 -4 67 -4 70 -32 4 -29 38 -55 53 -40 5 5 10 27
12 50 3 38 1 41 -15 32 -25 -13 -24 15 3 76 11 25 18 49 16 52 -3 2 -14 -15
-25 -39z"/>
<path d="M4406 2415 c-3 -8 -1 -15 4 -15 13 0 22 18 11 24 -5 3 -11 -1 -15 -9z"/>
<path d="M4435 2393 c-9 -25 10 -37 29 -18 21 22 20 30 -3 32 -11 1 -22 -6
-26 -14z"/>
<path d="M4777 1934 c-15 -13 -24 -24 -19 -24 12 0 57 39 51 44 -2 2 -17 -7
-32 -20z"/>
<path d="M4675 1828 c-9 -24 -10 -113 -1 -113 5 0 14 -11 20 -25 9 -22 11 -15
14 49 2 41 1 80 -2 88 -7 16 -25 17 -31 1z"/>
<path d="M5008 4619 c-10 -6 -18 -14 -18 -19 0 -13 21 -12 40 0 22 14 0 32
-22 19z"/>
<path d="M4906 4594 c-9 -8 -19 -27 -22 -41 -7 -28 0 -151 10 -161 11 -10 42
30 60 76 19 51 20 79 4 85 -8 3 -6 6 5 6 9 1 17 6 17 12 0 5 -4 8 -9 5 -5 -3
-11 3 -14 14 -6 24 -30 26 -51 4z"/>
<path d="M4620 4535 c0 -8 5 -15 10 -15 6 0 10 -6 10 -14 0 -16 44 -29 71 -21
26 9 24 23 -6 37 -14 6 -25 15 -25 20 0 4 -13 8 -30 8 -20 0 -30 -5 -30 -15z"/>
<path d="M5882 4138 c6 -18 28 -21 28 -4 0 9 -7 16 -16 16 -9 0 -14 -5 -12
-12z"/>
<path d="M6465 3760 c-3 -5 -1 -10 4 -10 6 0 11 5 11 10 0 6 -2 10 -4 10 -3 0
-8 -4 -11 -10z"/>
<path d="M4200 3650 c0 -13 -7 -20 -20 -20 -11 0 -20 -5 -20 -10 0 -13 52 -1
62 14 11 16 10 23 -7 30 -10 4 -15 -1 -15 -14z"/>
<path d="M3750 3540 c-13 -8 -13 -10 2 -10 9 0 20 5 23 10 8 13 -5 13 -25 0z"/>
<path d="M3465 3390 c-3 -5 3 -10 14 -10 12 0 21 5 21 10 0 6 -6 10 -14 10 -8
0 -18 -4 -21 -10z"/>
<path d="M3360 3095 c0 -16 -15 -19 -68 -16 -19 2 -41 -4 -50 -12 -21 -18 -82
-30 -82 -17 0 6 5 10 11 10 5 0 7 5 4 10 -10 16 -55 12 -55 -5 0 -13 -4 -14
-20 -5 -27 15 -55 -2 -58 -34 -1 -22 2 -26 23 -26 15 0 25 6 25 14 0 16 19 25
38 19 15 -6 16 -43 0 -43 -6 0 -3 -9 7 -20 15 -17 16 -20 3 -20 -18 0 -30 -24
-22 -44 3 -7 -2 -21 -11 -30 -23 -23 -2 -51 26 -35 11 5 29 7 39 4 12 -4 20
-2 20 5 0 14 19 33 48 49 12 6 22 16 22 21 0 18 -35 10 -48 -10 -21 -34 -52
-20 -52 25 0 19 61 44 92 38 22 -4 27 -1 30 18 4 26 28 39 28 14 0 -28 24 -11
44 31 10 21 22 47 27 57 7 12 5 17 -6 17 -8 0 -15 -7 -15 -15z"/>
<path d="M2905 3011 c-3 -12 -17 -21 -33 -23 -21 -2 -26 -8 -25 -25 2 -14 -3
-23 -11 -23 -7 0 -21 -9 -31 -20 -10 -11 -26 -20 -36 -20 -10 0 -24 -8 -31
-17 -7 -10 -22 -23 -33 -29 -48 -27 -13 -93 50 -94 35 0 52 16 84 83 13 26 27
47 33 47 5 0 6 9 3 20 -4 14 -2 20 9 20 12 0 56 76 56 96 0 14 -30 0 -35 -15z"/>
<path d="M3280 2939 c0 -5 5 -7 10 -4 6 3 10 8 10 11 0 2 -4 4 -10 4 -5 0 -10
-5 -10 -11z"/>
<path d="M4590 2920 c-12 -8 -10 -10 8 -10 13 0 20 4 17 10 -7 12 -6 12 -25 0z"/>
<path d="M2375 2879 c-11 -4 -33 -8 -50 -8 -23 -1 -27 -4 -15 -11 12 -8 10
-10 -11 -10 -14 0 -29 -3 -33 -7 -4 -5 -20 -8 -34 -8 -40 0 -72 -54 -72 -121
0 -29 5 -56 10 -59 18 -11 11 -27 -9 -20 -23 7 -64 -32 -88 -85 -9 -19 -23
-42 -30 -52 -8 -9 -16 -27 -17 -41 -3 -22 2 -25 39 -30 23 -4 59 -2 79 4 21 6
43 8 49 5 7 -2 2 -5 -10 -5 -12 -1 -25 -5 -28 -11 -3 -5 -23 -10 -44 -10 -46
0 -75 -19 -65 -43 7 -20 25 -22 42 -5 10 10 17 10 32 0 29 -18 40 -15 40 13 0
20 5 25 26 25 14 0 23 -4 19 -10 -10 -15 38 -12 61 5 12 8 24 11 28 8 3 -3 6
3 6 14 0 28 9 34 32 22 11 -6 32 -8 46 -4 l27 7 -23 19 c-13 10 -21 23 -17 29
3 5 2 10 -3 10 -6 0 -12 -7 -16 -15 -3 -8 -11 -15 -18 -15 -9 0 -9 3 0 12 12
12 16 50 6 60 -3 3 -18 1 -34 -5 -26 -10 -33 -8 -56 13 -14 14 -32 36 -39 51
-13 25 -13 25 23 26 20 0 31 -2 25 -4 -7 -3 -13 -10 -13 -18 0 -9 9 -11 33 -5
17 4 31 12 30 18 -2 7 4 12 13 12 9 0 30 12 47 26 17 15 38 23 49 21 22 -6 34
11 19 26 -17 17 -13 45 7 56 10 5 19 22 20 37 1 15 9 35 18 45 9 10 13 23 9
28 -8 14 -45 14 -45 1 0 -15 -28 -12 -37 4 -5 9 -15 11 -28 5z m-165 -409 c0
-5 -2 -10 -4 -10 -3 0 -8 5 -11 10 -3 6 -1 10 4 10 6 0 11 -4 11 -10z m60 -23
c0 -2 -9 -14 -20 -27 -14 -16 -20 -18 -20 -9 0 16 19 39 32 39 4 0 8 -2 8 -3z"/>
<path d="M4353 2883 c9 -2 23 -2 30 0 6 3 -1 5 -18 5 -16 0 -22 -2 -12 -5z"/>
<path d="M2685 2749 c5 -14 2 -25 -6 -30 -11 -7 -10 -9 4 -9 10 0 15 -5 12
-10 -4 -6 -15 -8 -26 -5 -11 4 -19 2 -19 -4 0 -6 9 -11 20 -11 11 0 20 -5 20
-10 0 -6 13 -4 31 5 18 10 28 22 26 29 -3 8 -1 18 5 24 8 8 6 13 -8 17 -10 4
-27 11 -36 16 -26 13 -30 11 -23 -12z"/>
<path d="M2082 2694 c-12 -13 -29 -24 -36 -24 -8 0 -19 -15 -25 -32 -9 -24
-14 -29 -20 -19 -6 9 -11 10 -15 2 -4 -6 -4 -16 0 -23 4 -6 8 -22 10 -35 2
-19 -1 -23 -17 -18 -26 8 -24 -9 3 -35 22 -20 23 -20 29 -2 4 11 16 23 26 27
16 6 16 8 -5 16 -23 9 -22 31 1 28 30 -4 37 2 31 25 -5 23 17 43 36 31 14 -9
22 15 10 30 -8 10 -6 16 9 27 12 8 18 18 14 21 -12 12 -28 6 -51 -19z"/>
<path d="M3528 2713 c7 -3 16 -2 19 1 4 3 -2 6 -13 5 -11 0 -14 -3 -6 -6z"/>
<path d="M3343 2703 c-28 -5 -31 -33 -4 -33 10 0 21 9 24 20 3 11 4 19 4 19
-1 -1 -12 -4 -24 -6z"/>
<path d="M3600 2660 c0 -5 7 -10 15 -10 8 0 15 5 15 10 0 6 -7 10 -15 10 -8 0
-15 -4 -15 -10z"/>
<path d="M4110 2648 l-25 -11 23 -5 c28 -4 52 4 52 18 0 13 -18 12 -50 -2z"/>
<path d="M3968 2618 c-28 -10 -34 -19 -22 -31 7 -7 42 9 62 30 17 16 2 17 -40
1z"/>
<path d="M3511 2604 c-7 -8 -10 -18 -6 -22 4 -4 10 -1 12 6 3 6 11 12 19 12 8
0 14 5 14 10 0 15 -23 11 -39 -6z"/>
<path d="M3478 2563 c7 -3 16 -2 19 1 4 3 -2 6 -13 5 -11 0 -14 -3 -6 -6z"/>
<path d="M2356 2545 c-3 -9 0 -15 9 -15 9 0 12 6 9 15 -4 8 -7 15 -9 15 -2 0
-5 -7 -9 -15z"/>
<path d="M1880 2535 c-11 -13 -25 -15 -72 -10 -49 6 -61 4 -84 -14 -15 -12
-33 -21 -40 -21 -25 0 -26 -22 -3 -38 l24 -17 -34 -5 c-26 -4 -39 -13 -53 -39
-11 -20 -16 -40 -12 -50 4 -9 8 -18 8 -21 1 -3 5 -11 10 -18 12 -20 -2 -28
-25 -14 -19 12 -19 12 -4 -12 10 -16 30 -28 51 -32 19 -3 34 -11 34 -17 0 -7
4 -7 12 1 7 7 25 12 42 12 28 0 29 1 10 15 -16 12 -16 14 -3 15 9 0 22 -7 30
-16 8 -10 21 -13 37 -9 13 3 30 1 38 -6 16 -13 15 -14 20 24 2 18 -2 27 -12
27 -8 0 -14 5 -14 10 0 6 11 10 24 10 27 0 53 24 37 35 -7 4 -5 15 7 33 9 14
11 23 5 19 -8 -5 -13 -3 -13 3 0 6 7 13 15 16 12 5 13 9 4 21 -9 11 -9 17 1
26 10 9 11 9 6 0 -5 -9 0 -13 13 -13 31 0 33 16 6 47 -19 22 -24 24 -25 11 0
-10 -6 -18 -14 -18 -23 0 -28 18 -9 29 13 7 15 13 7 21 -8 8 -14 6 -24 -5z"/>
<path d="M2840 2500 c0 -8 -10 -34 -22 -57 -12 -23 -20 -45 -16 -48 12 -13 58
27 58 50 0 16 9 26 31 35 22 9 27 16 19 24 -17 17 -70 14 -70 -4z"/>
<path d="M2950 2475 c0 -11 -5 -15 -16 -11 -38 14 -77 -44 -55 -82 9 -15 10
-15 11 5 0 29 28 56 51 50 12 -3 19 0 19 8 0 7 5 15 11 17 7 2 5 9 -5 17 -14
11 -16 11 -16 -4z"/>
<path d="M3550 2479 c0 -5 5 -7 10 -4 6 3 10 8 10 11 0 2 -4 4 -10 4 -5 0 -10
-5 -10 -11z"/>
<path d="M2938 2413 c7 -3 16 -2 19 1 4 3 -2 6 -13 5 -11 0 -14 -3 -6 -6z"/>
<path d="M3950 2389 c0 -5 5 -7 10 -4 6 3 10 8 10 11 0 2 -4 4 -10 4 -5 0 -10
-5 -10 -11z"/>
<path d="M2920 2380 c0 -5 4 -10 9 -10 6 0 13 5 16 10 3 6 -1 10 -9 10 -9 0
-16 -4 -16 -10z"/>
<path d="M4060 2381 c0 -6 5 -13 10 -16 6 -3 10 1 10 9 0 9 -4 16 -10 16 -5 0
-10 -4 -10 -9z"/>
<path d="M1360 2321 c0 -5 -12 -13 -27 -19 -38 -13 -83 -57 -83 -80 0 -11 -7
-25 -15 -32 -11 -9 -14 -22 -9 -48 6 -32 5 -35 -14 -30 -21 6 -69 -32 -56 -44
3 -4 -2 -18 -11 -32 -10 -14 -15 -32 -12 -40 4 -9 -5 -19 -24 -26 -16 -7 -29
-16 -29 -21 0 -5 16 -23 35 -40 19 -18 32 -36 29 -40 -10 -16 -24 -9 -24 11 0
13 -7 20 -20 20 -11 0 -20 -7 -20 -14 0 -18 38 -59 65 -71 19 -8 19 -9 -2 -12
-13 -3 -23 -9 -23 -14 0 -12 77 -12 85 1 3 6 14 10 23 10 18 0 38 19 67 63 17
26 8 41 -29 48 -14 3 -9 10 24 32 23 15 48 27 56 27 8 0 14 9 14 20 0 11 7 37
16 58 23 54 48 234 33 243 -6 4 -9 11 -5 17 3 5 -1 13 -10 16 -22 8 -34 7 -34
-3z m-15 -321 c3 -5 -1 -10 -10 -10 -9 0 -13 5 -10 10 3 6 8 10 10 10 2 0 7
-4 10 -10z m-155 -80 c0 -5 -7 -10 -16 -10 -8 0 -12 5 -9 10 3 6 10 10 16 10
5 0 9 -4 9 -10z"/>
<path d="M3888 2303 c7 -3 16 -2 19 1 4 3 -2 6 -13 5 -11 0 -14 -3 -6 -6z"/>
<path d="M1985 2200 c-3 -5 -1 -10 4 -10 6 0 11 5 11 10 0 6 -2 10 -4 10 -3 0
-8 -4 -11 -10z"/>
<path d="M2545 2150 c-4 -6 -16 -8 -27 -4 -16 5 -18 3 -12 -7 5 -8 9 -18 9
-23 0 -16 20 -17 40 -1 19 16 19 16 -5 10 l-25 -6 24 20 c13 12 18 21 13 21
-6 0 -14 -5 -17 -10z"/>
<path d="M1642 2128 c-6 -6 -32 -11 -57 -10 -28 0 -43 -4 -39 -10 4 -5 19 -8
35 -6 16 3 30 2 31 -2 4 -9 68 9 68 19 0 14 -27 20 -38 9z"/>
<path d="M2450 2110 c0 -7 6 -10 14 -7 8 3 17 2 20 -4 2 -5 3 -4 2 3 -3 17
-36 23 -36 8z"/>
<path d="M3506 2101 c-4 -7 -5 -15 -2 -18 9 -9 19 4 14 18 -4 11 -6 11 -12 0z"/>
<path d="M2538 2083 c7 -3 16 -2 19 1 4 3 -2 6 -13 5 -11 0 -14 -3 -6 -6z"/>
<path d="M3285 2070 c3 -5 11 -10 16 -10 6 0 7 5 4 10 -3 6 -11 10 -16 10 -6
0 -7 -4 -4 -10z"/>
<path d="M2423 2063 c-13 -2 -29 -14 -37 -25 -8 -11 -19 -17 -25 -13 -15 8
-14 -3 1 -19 9 -10 15 -9 30 6 10 10 16 23 13 28 -3 5 0 7 7 5 8 -3 22 1 33 9
20 16 18 17 -22 9z"/>
<path d="M3256 2036 c18 -14 18 -15 -10 -22 -20 -5 -31 -3 -34 4 -6 19 -29 14
-56 -12 -34 -31 -33 -36 7 -36 51 0 137 28 137 45 0 8 5 15 10 15 6 0 10 5 10
10 0 6 -19 10 -42 10 -39 0 -40 -1 -22 -14z"/>
<path d="M2130 2010 c19 -13 30 -13 30 0 0 6 -10 10 -22 10 -19 0 -20 -2 -8
-10z"/>
<path d="M3068 2013 c7 -3 16 -2 19 1 4 3 -2 6 -13 5 -11 0 -14 -3 -6 -6z"/>
<path d="M2258 1993 c6 -2 18 -2 25 0 6 3 1 5 -13 5 -14 0 -19 -2 -12 -5z"/>
<path d="M2400 1990 c0 -5 7 -7 15 -4 8 4 15 8 15 10 0 2 -7 4 -15 4 -8 0 -15
-4 -15 -10z"/>
<path d="M2085 1980 c-8 -13 5 -13 25 0 13 8 13 10 -2 10 -9 0 -20 -4 -23 -10z"/>
<path d="M2325 1980 c3 -5 13 -10 21 -10 8 0 12 5 9 10 -3 6 -13 10 -21 10 -8
0 -12 -4 -9 -10z"/>
<path d="M2039 1973 c-1 -5 -1 -11 0 -15 2 -13 -73 -39 -95 -34 -14 4 -31 -2
-45 -14 l-24 -19 23 -1 c12 0 22 4 22 9 0 5 19 11 43 14 100 12 177 38 177 61
0 4 -6 4 -12 -1 -24 -18 -59 -22 -65 -7 -5 15 -22 19 -24 7z"/>
<path d="M3005 1970 c-3 -5 -2 -10 4 -10 5 0 13 5 16 10 3 6 2 10 -4 10 -5 0
-13 -4 -16 -10z"/>
<path d="M2175 1920 c-3 -5 1 -10 10 -10 9 0 13 5 10 10 -3 6 -8 10 -10 10 -2
0 -7 -4 -10 -10z"/>
<path d="M2231 1914 c0 -11 3 -14 6 -6 3 7 2 16 -1 19 -3 4 -6 -2 -5 -13z"/>
<path d="M2457 1913 c-9 -2 -15 -9 -12 -14 9 -14 32 -11 39 6 6 15 4 16 -27 8z"/>
<path d="M2265 1900 c-3 -5 -1 -10 4 -10 6 0 11 5 11 10 0 6 -2 10 -4 10 -3 0
-8 -4 -11 -10z"/>
<path d="M2503 1903 c-14 -5 -18 -33 -5 -33 5 0 17 9 27 20 18 20 8 26 -22 13z"/>
<path d="M1995 1860 c3 -5 8 -10 11 -10 2 0 4 5 4 10 0 6 -5 10 -11 10 -5 0
-7 -4 -4 -10z"/>
<path d="M2220 1861 c0 -6 5 -13 10 -16 6 -3 10 1 10 9 0 9 -4 16 -10 16 -5 0
-10 -4 -10 -9z"/>
<path d="M1458 1683 c12 -2 30 -2 40 0 9 3 -1 5 -23 4 -22 0 -30 -2 -17 -4z"/>
<path d="M1 1168 c0 -104 2 -188 5 -188 15 0 90 24 101 33 21 15 16 90 -7 115
-11 12 -20 28 -20 37 0 16 -18 51 -37 72 -11 12 -26 54 -36 98 -3 11 -5 -64
-6 -167z"/>
</g>
</svg>
