<?xml version="1.0" standalone="no"?>
<!DOCTYPE svg PUBLIC "-//W3C//DTD SVG 20010904//EN"
 "http://www.w3.org/TR/2001/REC-SVG-20010904/DTD/svg10.dtd">
<svg version="1.0" xmlns="http://www.w3.org/2000/svg"
 width="1080.000000pt" height="1439.000000pt" viewBox="0 0 1080.000000 1439.000000"
 preserveAspectRatio="xMidYMid meet">

<g transform="translate(0.000000,1439.000000) scale(0.100000,-0.100000)"
fill="#000000" stroke="none">
<path d="M4087 13404 c-4 -4 -7 -14 -7 -22 0 -9 -7 -23 -16 -33 -21 -23 -31
-157 -12 -164 7 -2 101 -6 208 -7 l195 -3 27 -55 c16 -30 28 -61 28 -70 0 -12
15 -15 73 -17 178 -3 586 -23 600 -29 9 -3 21 -21 27 -39 17 -53 30 -58 143
-57 l102 0 16 43 c9 23 23 47 31 53 21 16 609 20 655 5 32 -10 33 -12 33 -65
0 -39 4 -56 15 -60 18 -7 20 -34 2 -34 -7 0 -18 -5 -25 -12 -6 -6 -20 -13 -29
-14 -170 -22 -286 -30 -576 -38 -54 -2 -99 -5 -101 -7 -1 -2 -10 -40 -20 -84
-10 -47 -24 -85 -34 -93 -12 -10 -40 -12 -95 -9 -70 3 -80 2 -93 -17 -15 -22
-19 -93 -5 -115 7 -11 15 -9 40 10 25 19 44 23 102 23 63 1 73 -2 86 -21 27
-40 33 -25 31 65 -1 51 3 101 10 118 l12 29 268 -3 c147 -2 294 1 327 6 68 11
99 0 128 -47 10 -16 17 -20 17 -11 1 8 3 68 5 132 2 64 6 122 10 127 3 6 23 9
43 6 20 -2 96 -10 168 -16 109 -10 135 -10 160 2 35 17 43 62 20 107 l-15 29
-154 -5 c-85 -2 -183 -2 -219 2 -57 6 -64 9 -66 31 -1 12 5 28 13 35 8 7 17
27 21 46 3 18 12 38 18 43 7 6 89 16 182 22 93 6 170 12 172 14 2 2 -10 45
-26 96 -34 111 -24 106 -214 108 -118 1 -129 -1 -147 -20 -16 -18 -26 -20 -53
-14 -18 5 -175 8 -348 7 l-314 -1 -30 -32 -29 -31 -25 41 c-24 40 -25 41 -81
41 -31 0 -61 -4 -66 -8 -20 -13 -35 -87 -28 -140 l6 -53 31 7 c17 4 58 8 91 8
57 1 60 2 65 28 12 65 9 64 326 72 159 4 309 11 334 16 67 12 80 1 80 -70 0
-52 -3 -62 -24 -75 -39 -26 -126 -34 -421 -40 -178 -3 -281 -9 -284 -16 -1 -5
3 -23 9 -40 11 -26 10 -32 -6 -50 -17 -19 -26 -20 -124 -14 -58 4 -109 11
-114 15 -5 5 5 21 23 38 29 26 31 32 25 71 -6 39 -8 41 -24 26 -33 -30 -127
-35 -424 -26 l-287 9 -24 26 c-23 25 -24 29 -10 43 22 21 15 46 -15 53 -20 5
-26 15 -33 50 -5 25 -11 47 -13 49 -2 2 -72 7 -156 11 -84 4 -160 10 -169 14
-8 4 -18 3 -22 0z m1946 -651 c-13 -2 -35 -2 -50 0 -16 2 -5 4 22 4 28 0 40
-2 28 -4z"/>
<path d="M4743 13383 c20 -2 54 -2 75 0 20 2 3 4 -38 4 -41 0 -58 -2 -37 -4z"/>
<path d="M4870 13379 c0 -7 -53 -10 -157 -9 -168 2 -193 -2 -193 -30 0 -15 17
-18 152 -23 192 -9 422 -9 482 -1 35 5 46 11 46 24 0 22 -43 30 -172 30 -59 0
-98 4 -98 10 0 6 -13 10 -30 10 -16 0 -30 -5 -30 -11z"/>
<path d="M4005 12975 c-10 -70 4 -79 118 -83 51 -2 96 -8 102 -13 12 -12 48
-12 61 0 5 5 34 11 65 12 48 2 59 -1 87 -26 49 -43 65 -123 39 -195 -22 -62
-15 -60 -186 -60 -87 0 -179 -3 -205 -6 -90 -13 -44 -24 97 -24 113 0 147 -3
163 -15 17 -14 -1 -15 -181 -10 -196 6 -245 1 -220 -24 6 -6 109 -13 240 -16
127 -3 245 -8 262 -11 18 -3 36 -4 40 -4 5 0 13 41 19 91 6 49 14 92 17 96 4
3 19 5 34 4 101 -5 661 -10 676 -5 13 4 17 16 17 55 l0 49 -157 0 c-90 0 -152
-4 -145 -9 26 -16 -16 -21 -161 -20 -234 1 -273 16 -52 19 217 3 215 5 -27 24
-97 7 -181 17 -188 21 -6 4 -16 19 -21 33 -8 21 -12 23 -19 12 -7 -12 -10 -11
-16 5 -5 13 -1 23 14 33 17 11 22 24 22 57 l0 43 -207 1 c-115 1 -224 4 -244
7 l-36 6 -8 -47z m1013 -202 c-10 -2 -26 -2 -35 0 -10 3 -2 5 17 5 19 0 27 -2
18 -5z"/>
<path d="M6216 12597 c-14 -10 -16 -21 -11 -48 11 -57 19 -65 52 -50 32 15
384 34 454 25 35 -5 47 -3 52 8 4 12 -7 15 -61 15 -242 -1 -342 4 -369 18 -15
8 -35 15 -44 15 -9 0 -22 7 -29 15 -15 18 -21 19 -44 2z"/>
<path d="M6199 12354 c-7 -9 -12 -28 -11 -43 2 -23 -3 -28 -41 -38 -55 -15
-183 -22 -440 -25 -238 -2 -221 5 -230 -98 -3 -36 -8 -73 -13 -84 -5 -14 -3
-17 7 -14 8 3 17 24 21 49 3 24 10 60 15 79 l9 34 324 -3 c208 -2 330 -7 338
-13 9 -8 17 -6 30 6 10 9 24 16 30 16 13 0 17 105 6 134 -8 20 -28 20 -45 0z"/>
<path d="M4487 12344 c-9 -9 -7 -110 2 -144 10 -36 35 -36 61 0 15 20 28 29
38 25 8 -3 148 -8 311 -11 163 -3 304 -7 314 -10 30 -9 47 20 47 80 0 51 -2
56 -25 62 -14 4 -45 3 -68 0 -50 -9 -618 -9 -650 -1 -13 4 -26 3 -30 -1z m538
-54 c120 -16 133 -20 113 -31 -10 -5 -130 -6 -297 -2 -236 5 -281 9 -286 21
-3 9 0 19 7 24 17 11 358 3 463 -12z"/>
<path d="M5640 12329 c0 -13 35 -20 87 -18 26 1 122 -1 213 -5 143 -7 168 -6
185 8 19 14 16 15 -40 17 -229 5 -445 4 -445 -2z"/>
<path d="M6250 12165 c0 -8 5 -15 10 -15 6 0 10 7 10 15 0 8 -4 15 -10 15 -5
0 -10 -7 -10 -15z"/>
<path d="M5264 12121 c1 -22 4 -43 9 -47 4 -4 7 14 7 39 0 26 -4 47 -8 47 -5
0 -8 -18 -8 -39z"/>
<path d="M3890 12021 c-14 -4 -26 -15 -28 -24 -3 -14 4 -17 36 -17 46 0 55 6
41 31 -10 20 -11 21 -49 10z"/>
<path d="M4090 12014 c0 -14 -9 -16 -50 -12 -35 4 -53 1 -61 -8 -8 -10 -8 -15
2 -18 20 -7 355 -29 417 -28 28 1 52 -2 52 -6 0 -4 7 -15 14 -25 19 -25 59 -6
54 26 -4 27 -36 35 -222 50 -94 8 -141 16 -144 25 -6 19 -62 15 -62 -4z"/>
<path d="M6854 11993 c-10 -16 -34 -18 -220 -21 -115 -2 -241 1 -281 6 -80 9
-113 2 -113 -26 0 -26 11 -34 27 -20 10 8 99 11 319 9 327 -3 331 -2 304 48
-13 26 -22 26 -36 4z"/>
<path d="M5257 11973 c-3 -15 -1 -36 3 -47 7 -20 8 -20 20 7 13 26 15 27 95
27 90 0 88 2 110 -77 10 -36 25 -27 25 15 0 73 -6 80 -63 81 -29 0 -76 5 -106
11 -75 14 -78 13 -84 -17z"/>
<path d="M6234 11728 c-4 -24 -7 -49 -5 -55 6 -33 -19 -50 -86 -61 -116 -19
-542 -36 -596 -25 -41 9 -49 8 -57 -7 -5 -9 -7 -26 -4 -38 6 -20 6 -20 37 -1
30 18 54 19 359 19 236 0 329 -3 334 -12 9 -15 53 68 53 102 1 14 -6 37 -13
52 -9 16 -11 30 -5 33 12 8 12 35 0 35 -5 0 -13 -19 -17 -42z"/>
<path d="M4487 11703 c-11 -10 -8 -81 3 -88 6 -3 10 -17 10 -30 0 -23 3 -24
58 -22 31 1 182 0 336 -2 257 -3 280 -5 297 -22 37 -37 69 -20 69 36 0 34 -11
37 -82 25 -86 -13 -583 3 -620 20 -23 11 -28 19 -28 52 0 30 -4 38 -18 38 -10
0 -22 -3 -25 -7z"/>
<path d="M5242 11696 c1 -10 8 -17 13 -17 15 1 12 24 -3 29 -9 3 -13 -2 -10
-12z"/>
<path d="M5487 11704 c-8 -8 1 -24 14 -24 5 0 9 7 9 15 0 15 -12 20 -23 9z"/>
<path d="M5267 11416 c-4 -10 -7 -23 -7 -30 0 -14 47 -20 55 -6 3 6 0 10 -8
10 -8 0 -18 10 -24 22 -8 20 -10 20 -16 4z"/>
<path d="M3953 11384 c-10 -15 -45 -54 -77 -88 -55 -57 -62 -61 -103 -60 -23
0 -43 -3 -43 -8 0 -4 16 -8 35 -8 19 0 55 -5 80 -12 60 -16 76 -5 91 61 6 29
16 57 22 63 6 6 42 19 79 28 l68 17 -57 16 c-73 22 -74 22 -95 -9z"/>
<path d="M6840 11222 c0 -52 6 -57 58 -46 48 10 16 94 -36 94 -20 0 -22 -5
-22 -48z"/>
<path d="M3490 10860 c0 -5 5 -10 11 -10 5 0 7 5 4 10 -3 6 -8 10 -11 10 -2 0
-4 -4 -4 -10z"/>
<path d="M3376 10658 c-88 -148 -87 -146 -117 -193 -14 -22 -61 -107 -104
-190 -122 -236 -185 -355 -224 -425 -132 -236 -154 -344 -139 -675 5 -110 6
-211 3 -225 -22 -95 -30 -296 -29 -785 2 -616 9 -908 24 -968 7 -23 19 -69 27
-102 9 -33 27 -79 40 -102 13 -24 21 -43 17 -43 -3 0 -2 -6 4 -12 42 -52 299
-574 306 -622 4 -25 11 -46 15 -46 4 0 16 -18 26 -40 10 -22 22 -40 27 -40 4
0 8 -5 8 -11 0 -6 40 -79 90 -162 49 -82 97 -173 105 -201 27 -96 64 -241 75
-296 5 -30 19 -102 30 -160 11 -58 27 -111 34 -119 11 -10 35 -12 115 -6 113
8 127 25 21 25 -98 0 -101 4 -140 205 -11 61 -30 145 -42 188 -16 59 -18 81
-9 90 8 8 491 11 1907 9 1043 -2 1904 0 1915 3 11 4 16 11 13 17 -5 7 -82 9
-238 7 -303 -5 -3108 9 -3385 17 -204 6 -216 8 -237 29 -23 23 -31 66 -39 228
-3 67 -1 78 15 87 12 6 702 11 1952 13 1505 2 1941 5 1969 15 41 14 58 35 84
107 10 28 22 55 26 60 3 6 10 25 14 43 3 17 11 32 16 32 5 0 9 5 9 11 0 6 9
22 20 36 11 14 20 34 20 43 0 10 6 23 14 29 8 7 18 25 21 41 3 16 13 34 21 41
16 13 19 69 4 69 -5 0 -10 -9 -10 -21 0 -11 -9 -33 -20 -49 -11 -15 -17 -30
-13 -33 3 -4 -2 -9 -11 -13 -9 -3 -16 -15 -16 -26 0 -10 -11 -29 -25 -42 -14
-13 -25 -30 -25 -39 0 -9 -10 -22 -22 -28 -12 -6 -43 -31 -68 -55 -48 -45 -94
-69 -195 -100 -64 -20 -169 -21 -945 -8 -168 3 -789 6 -1380 8 -952 3 -1085 5
-1165 20 -89 16 -167 41 -228 73 -45 23 -167 143 -167 164 0 9 -3 19 -7 21
-12 5 -45 58 -83 133 -19 38 -43 78 -52 88 -9 11 -22 33 -28 51 -6 17 -16 38
-21 46 -54 89 -112 217 -145 320 -35 109 -43 232 -50 805 -4 281 -10 501 -15
490 -6 -17 -8 -17 -8 -2 -1 9 -5 17 -11 17 -5 0 -13 12 -16 26 -15 59 -28 0
-33 -144 -15 -497 -3 -1056 25 -1171 15 -61 112 -273 202 -436 42 -78 116
-216 235 -440 80 -152 98 -207 78 -241 -6 -11 -11 -14 -11 -7 0 12 -41 102
-60 133 -5 8 -15 29 -23 45 -19 42 -107 208 -117 220 -4 6 -43 80 -87 165 -44
85 -102 196 -130 245 -78 142 -125 252 -142 335 -27 128 -38 510 -34 1240 2
399 5 763 7 810 5 114 31 263 57 330 21 55 130 268 199 390 20 36 44 79 52 95
27 55 111 210 128 235 9 14 44 78 78 143 51 98 64 133 76 205 7 48 13 88 11
90 -1 1 -33 -48 -69 -110z m-426 -2232 c0 -3 -4 -8 -10 -11 -5 -3 -10 -1 -10
4 0 6 5 11 10 11 6 0 10 -2 10 -4z"/>
<path d="M7395 10705 c14 -76 44 -152 103 -256 33 -57 93 -165 134 -239 41
-74 100 -180 131 -235 173 -313 207 -395 226 -560 28 -240 56 -1224 45 -1607
-4 -151 -3 -248 2 -248 6 0 19 15 29 33 16 26 21 59 27 167 17 348 19 484 8
735 -6 149 -15 396 -20 550 -9 296 -21 428 -45 521 -14 56 -121 280 -231 484
-31 58 -76 141 -99 185 -61 113 -285 479 -306 499 -7 8 -9 0 -4 -29z"/>
<path d="M3990 10490 c-85 -4 -182 -13 -215 -19 -33 -5 -82 -14 -110 -19 -73
-13 -153 -59 -215 -124 -72 -74 -83 -88 -98 -121 -10 -23 4 -14 69 42 146 127
231 153 483 152 99 -1 182 -4 185 -6 2 -3 -52 -5 -120 -5 -188 0 -349 -33
-430 -87 -106 -72 -160 -138 -249 -308 -29 -55 -64 -116 -77 -135 -12 -19 -23
-38 -23 -42 0 -4 -29 -67 -64 -140 -102 -212 -99 -183 -100 -943 0 -357 2
-670 4 -694 3 -24 11 -46 18 -49 9 -3 12 -37 12 -126 0 -108 -2 -125 -19 -140
-16 -14 -19 -32 -20 -109 -1 -126 17 -342 34 -398 14 -49 140 -307 194 -397
17 -29 31 -56 31 -59 0 -19 109 -195 144 -232 46 -48 154 -131 171 -131 7 0
25 -7 42 -15 16 -8 59 -19 94 -25 115 -18 1418 -32 2401 -25 899 6 1012 9
1097 36 41 12 121 51 121 59 0 11 52 64 64 66 60 9 109 84 279 424 94 187 132
281 146 355 14 77 15 1714 1 1975 l-9 185 -45 107 c-43 105 -81 183 -136 283
-15 28 -40 75 -56 105 -16 30 -32 57 -35 60 -4 3 -19 30 -34 60 -15 30 -47 83
-71 118 -41 59 -40 82 2 45 11 -10 31 -27 44 -38 l25 -20 -21 25 c-12 14 -27
36 -34 49 -15 29 -89 111 -101 111 -4 0 -24 11 -44 25 -54 36 -141 67 -215 77
-220 27 -2750 66 -3120 48z m2605 -84 c373 -7 502 -14 511 -28 5 -7 -17 -9
-67 -4 -155 12 -332 16 -1274 26 -533 6 -979 13 -990 15 -28 5 1428 -2 1820
-9z m-1962 -3 c-7 -2 -19 -2 -25 0 -7 3 -2 5 12 5 14 0 19 -2 13 -5z m2514
-29 c-3 -3 -12 -4 -19 -1 -8 3 -5 6 6 6 11 1 17 -2 13 -5z m-227 -29 c47 -3
114 -7 150 -9 92 -5 130 -25 79 -41 -21 -7 -21 -7 3 -32 l23 -26 -100 6 c-442
27 -571 29 -1350 23 -874 -7 -1375 -19 -1414 -34 -39 -14 337 -21 1494 -28
583 -3 1087 -10 1120 -15 33 -5 93 -19 134 -31 68 -21 81 -30 155 -103 86 -85
125 -151 302 -511 112 -230 105 -151 107 -1229 l2 -930 -32 -88 c-18 -48 -50
-123 -71 -165 -22 -42 -77 -150 -122 -238 -120 -237 -190 -306 -363 -359 l-88
-27 -602 1 c-331 1 -1023 4 -1537 7 -890 5 -939 7 -1015 26 -95 23 -161 57
-228 117 -66 60 -92 103 -260 436 -127 252 -119 163 -118 1275 0 642 4 954 12
995 6 33 13 72 16 87 3 15 54 127 114 248 60 122 109 225 109 231 0 5 4 9 9 9
5 0 12 12 16 27 11 45 131 154 215 195 41 21 66 37 55 37 -31 1 -104 -27 -139
-53 -17 -13 -41 -27 -53 -30 -11 -4 -24 -13 -27 -21 -2 -7 -14 -19 -25 -25
-19 -10 -20 -9 -11 15 23 61 88 130 158 168 46 25 180 56 247 58 28 0 61 5 75
10 17 5 -1 8 -57 6 -46 -1 -83 1 -83 5 0 9 -12 9 360 18 310 7 2602 3 2740 -5z
m528 -207 c11 -18 23 -44 27 -58 l7 -25 -26 24 c-14 14 -24 26 -22 29 2 2 -4
12 -15 23 -22 22 -25 39 -5 39 8 0 23 -15 34 -32z m62 -114 c0 -14 -12 -19
-23 -8 -9 9 4 35 14 28 5 -3 9 -12 9 -20z m-4379 -582 c-22 -111 -33 -343 -37
-762 -2 -234 -7 -450 -11 -480 -5 -52 -6 -53 -15 -25 -15 48 -1 1053 17 1179
15 108 21 132 39 155 17 21 20 -4 7 -67z m4667 -157 c6 -60 14 -201 17 -312 2
-111 5 -206 6 -210 1 -4 1 -60 0 -123 -1 -80 -4 -110 -11 -100 -7 11 -10 -9
-9 -65 1 -124 -9 -602 -15 -785 -12 -311 -15 -353 -31 -377 -9 -13 -14 -27
-11 -31 2 -4 -2 -16 -10 -27 -13 -18 -14 -17 -14 11 0 16 4 58 9 94 33 234 33
1204 0 1798 -9 177 -10 235 -1 244 9 9 12 7 12 -9 0 -12 5 -25 11 -28 7 -5 8
5 4 29 -4 20 -4 44 0 53 12 30 31 -40 43 -162z m19 -1047 c-3 -7 -5 -2 -5 12
0 14 2 19 5 13 2 -7 2 -19 0 -25z m-4737 -178 c0 -5 -2 -10 -4 -10 -3 0 -8 5
-11 10 -3 6 -1 10 4 10 6 0 11 -4 11 -10z m304 -1276 c21 -20 22 -52 2 -35
-12 10 -29 51 -21 51 2 0 11 -7 19 -16z m66 -104 c0 -5 -2 -10 -4 -10 -3 0 -8
5 -11 10 -3 6 -1 10 4 10 6 0 11 -4 11 -10z m4040 -68 c0 -5 -7 -17 -15 -28
-14 -18 -14 -17 -4 9 12 27 19 34 19 19z m-230 -116 c0 -20 -74 -44 -153 -49
-80 -6 -77 3 8 27 33 10 71 21 85 26 39 13 60 11 60 -4z m-397 -93 c-34 -2
-93 -2 -130 0 -37 2 -9 3 62 3 72 0 102 -1 68 -3z"/>
<path d="M4170 10321 c19 -3 103 -4 185 0 l150 5 -185 1 c-102 0 -169 -2 -150
-6z"/>
<path d="M4593 10323 c37 -2 96 -2 130 0 34 2 4 3 -68 3 -71 0 -99 -1 -62 -3z"/>
<path d="M5608 10323 c6 -2 18 -2 25 0 6 3 1 5 -13 5 -14 0 -19 -2 -12 -5z"/>
<path d="M5863 10323 c15 -2 39 -2 55 0 15 2 2 4 -28 4 -30 0 -43 -2 -27 -4z"/>
<path d="M6041 10325 c3 -2 115 -7 250 -10 156 -3 237 -2 224 4 -20 9 -483 15
-474 6z"/>
<path d="M7050 10296 c0 -2 9 -6 20 -9 11 -3 18 -1 14 4 -5 9 -34 13 -34 5z"/>
<path d="M3970 10170 c-210 -10 -295 -41 -395 -144 -57 -58 -74 -87 -228 -376
-133 -251 -127 -186 -127 -1302 0 -1105 -15 -979 155 -1313 61 -121 123 -238
137 -260 58 -92 149 -158 272 -197 57 -19 105 -21 671 -29 336 -5 1040 -8
1565 -7 946 3 956 3 1010 24 95 36 133 60 195 122 54 54 74 87 186 309 70 137
139 288 155 338 l28 90 -3 605 c-2 333 -7 754 -11 935 -8 321 -9 332 -35 410
-23 70 -109 244 -238 485 -90 168 -192 247 -371 289 -33 8 -310 13 -895 16
-465 3 -1089 6 -1386 8 -297 2 -605 1 -685 -3z m1593 -500 c350 0 497 -3 497
-11 0 -10 -227 -11 -2170 -9 -77 0 -210 14 -210 22 0 7 230 9 693 4 380 -3
916 -6 1190 -6z m-1581 -110 c17 -40 12 -55 -15 -45 -9 4 -12 15 -9 31 3 18 0
24 -13 24 -13 0 -16 -6 -13 -24 4 -22 -7 -36 -28 -36 -8 0 -4 21 10 55 20 48
46 46 68 -5z m313 30 c20 -8 24 -14 17 -26 -5 -9 -7 -25 -5 -35 4 -16 0 -19
-25 -19 -17 0 -34 -4 -37 -10 -3 -5 -13 -10 -21 -10 -24 0 -16 43 19 98 10 15
18 15 52 2z m182 -2 c6 -7 8 -29 6 -49 -5 -34 -6 -36 -28 -25 -22 10 -23 12
-7 29 16 18 16 20 -2 33 -17 12 -22 12 -38 -3 -17 -15 -17 -17 0 -29 15 -12
15 -15 2 -24 -8 -5 -18 -10 -22 -10 -10 0 -11 74 -1 83 11 12 80 8 90 -5z
m115 -18 c22 -38 43 -38 63 1 17 33 40 35 40 3 0 -12 -8 -20 -21 -22 -12 -2
-26 -14 -32 -28 -15 -31 -26 -31 -40 1 -13 29 -42 34 -42 8 0 -13 -2 -15 -8
-5 -11 17 -2 72 12 72 6 0 19 -14 28 -30z m332 24 c26 -10 18 -25 -9 -18 -60
15 -97 -22 -59 -60 14 -15 14 -16 -4 -16 -15 0 -21 8 -24 36 -3 23 1 42 10 50
14 15 59 19 86 8z m135 -44 c18 0 32 7 36 18 6 13 9 10 16 -18 9 -40 0 -64
-12 -32 -11 30 -68 31 -76 2 -9 -33 -22 -12 -18 28 4 49 5 51 15 25 7 -17 18
-23 39 -23z m226 -8 c1 -34 -2 -41 -15 -36 -33 14 -61 16 -75 4 -13 -11 -15
-6 -15 34 l0 47 53 -3 52 -3 0 -43z m183 4 c4 -43 -11 -67 -29 -49 -8 8 -8 13
0 17 18 12 13 56 -6 58 -34 3 -57 -3 -65 -15 -15 -23 -8 -38 25 -52 31 -14 15
-21 -18 -9 -24 10 -37 51 -24 75 8 17 19 20 62 17 l52 -3 3 -39z m113 14 c32
-40 57 -39 62 3 3 22 4 15 5 -20 2 -63 -15 -70 -55 -23 -29 35 -44 35 -54 -1
-5 -18 -7 -11 -8 24 -1 56 15 62 50 17z m249 11 c15 -29 12 -68 -6 -75 -29
-11 -37 -6 -21 12 21 23 22 51 3 58 -28 11 -51 11 -63 1 -15 -11 -17 -57 -3
-57 6 0 10 -5 10 -10 0 -7 -6 -7 -20 0 -23 12 -27 59 -8 78 7 7 31 12 55 12
32 0 45 -5 53 -19z m-1737 -70 c-8 -11 -30 35 -25 52 4 16 7 14 17 -14 6 -19
10 -36 8 -38z m847 10 c0 -12 -28 -22 -34 -12 -3 5 -3 11 1 15 9 9 33 7 33 -3z
m-984 -163 c7 -33 14 -44 34 -48 25 -6 25 -6 -5 -12 -41 -8 -55 7 -55 58 0 56
13 57 26 2z m137 3 c-4 -29 -1 -39 11 -44 11 -5 16 -1 16 13 0 22 22 39 28 22
6 -20 32 -14 32 7 0 25 16 36 24 16 7 -19 32 -19 40 0 3 8 12 15 21 15 11 0
14 -8 11 -32 -3 -18 -5 -39 -5 -45 -1 -19 -21 -16 -21 2 0 23 -31 31 -42 11
-7 -13 -13 -14 -23 -6 -10 8 -15 8 -20 0 -13 -21 -54 -30 -82 -18 -16 6 -36
10 -45 9 -14 -2 -18 5 -18 26 0 33 14 58 27 50 5 -3 15 -2 23 4 25 15 28 11
23 -30z m57 23 c0 -14 -3 -15 -17 -3 -10 7 -20 15 -22 16 -2 2 5 3 17 3 14 0
22 -6 22 -16z m195 -21 c-4 -21 -8 -44 -11 -51 -7 -22 -24 -2 -24 28 0 16 -5
32 -10 35 -17 10 -1 25 26 25 23 0 24 -3 19 -37z m305 2 c20 -36 45 -47 38
-17 -12 46 51 70 76 29 13 -20 -1 -36 -58 -66 -38 -19 -41 -20 -59 -4 -15 14
-22 15 -37 5 -42 -26 -49 -14 -21 38 14 27 30 48 36 47 5 -2 16 -16 25 -32z
m329 19 c2 -2 5 -22 6 -44 2 -41 -9 -51 -29 -24 -12 15 -46 10 -46 -7 0 -5 -4
-9 -10 -9 -18 0 -12 78 8 89 15 10 60 6 71 -5z m74 6 c7 0 4 -7 -6 -14 -16
-13 -16 -14 5 -20 l23 -7 -22 -9 c-13 -5 -23 -13 -23 -18 0 -5 10 -14 23 -20
20 -11 19 -11 -13 -9 -30 2 -35 6 -38 31 -5 45 6 79 24 72 9 -3 21 -6 27 -6z
m113 -6 c19 -15 18 -15 -3 -9 -12 3 -24 1 -28 -5 -3 -5 3 -10 14 -10 11 0 23
-5 26 -10 9 -15 25 -2 25 21 0 19 5 22 35 22 34 0 39 -5 15 -14 -23 -10 -24
-11 -7 -21 17 -9 17 -11 1 -22 -21 -16 -10 -36 19 -36 16 0 18 -3 8 -9 -8 -5
-28 -5 -49 1 -24 7 -43 6 -60 -1 -29 -14 -62 -5 -62 16 0 11 6 14 26 9 19 -5
25 -3 22 6 -3 7 -14 14 -25 16 -29 4 -39 33 -17 49 23 17 36 16 60 -3z m189
-21 c-11 -62 -17 -71 -26 -38 -4 17 -11 40 -14 53 -6 19 -4 22 19 22 25 0 27
-2 21 -37z m1108 -5 c-6 -7 -13 -24 -16 -38 -2 -14 -5 0 -6 30 -1 51 0 53 16
38 12 -13 13 -20 6 -30z m-2013 27 c0 -12 -35 -75 -42 -75 -11 0 -10 5 6 45 8
19 20 35 25 35 6 0 11 -2 11 -5z m70 -29 c0 -21 6 -36 15 -40 23 -9 18 -28 -7
-24 -20 3 -23 10 -26 51 -2 28 1 47 7 47 6 0 11 -15 11 -34z m1860 14 c0 -5
-4 -10 -9 -10 -6 0 -13 5 -16 10 -3 6 1 10 9 10 9 0 16 -4 16 -10z m410 -7
c-8 -4 -20 -13 -27 -22 -10 -14 -12 -14 -18 2 -8 19 -35 24 -35 5 0 -6 -3 -9
-6 -5 -15 14 11 27 54 26 26 0 40 -3 32 -6z m-1950 -12 c0 -12 -20 -25 -27
-18 -7 7 6 27 18 27 5 0 9 -4 9 -9z m1757 -28 c-3 -10 -5 -4 -5 12 0 17 2 24
5 18 2 -7 2 -21 0 -30z m-280 -5 c-3 -8 -6 -5 -6 6 -1 11 2 17 5 13 3 -3 4
-12 1 -19z m68 -8 c3 -5 -1 -10 -9 -10 -9 0 -16 5 -16 10 0 6 4 10 9 10 6 0
13 -4 16 -10z m260 -10 c-3 -5 -16 -10 -28 -9 -20 1 -20 2 3 9 14 4 26 8 28 9
2 1 0 -3 -3 -9z m-575 -106 c857 -5 917 -7 950 -24 42 -22 81 -63 105 -109 16
-31 18 -100 23 -757 5 -669 4 -727 -12 -768 -21 -55 -84 -112 -140 -127 -29
-8 -182 -10 -531 -5 -269 3 -960 6 -1534 6 -660 1 -1061 4 -1089 11 -54 12
-111 51 -143 98 l-24 36 -3 735 c-2 653 -1 740 13 777 29 75 73 114 150 134
17 4 320 6 675 3 355 -2 1057 -7 1560 -10z m-2090 -1910 c12 -31 27 -31 42 1
18 40 40 32 36 -12 -2 -21 -7 -38 -13 -39 -5 0 -18 -4 -28 -8 -10 -5 -23 -3
-31 3 -10 8 -16 9 -21 1 -14 -22 -25 -8 -25 33 0 63 20 73 40 21z m198 8 c7
-9 10 -23 7 -30 -3 -8 -5 -20 -5 -27 0 -7 -12 -20 -26 -30 -25 -16 -27 -16
-50 6 -46 43 -21 118 35 104 14 -3 32 -14 39 -23z m112 13 c16 -10 12 -71 -5
-85 -22 -18 -28 -7 -14 24 10 22 10 29 -2 42 -9 8 -23 12 -32 8 -21 -8 -22
-48 -1 -68 14 -15 14 -16 -4 -16 -16 0 -21 8 -24 41 -2 27 1 47 10 55 13 13
50 13 72 -1z m90 5 c13 -8 13 -10 -2 -10 -27 0 -31 -19 -6 -30 l23 -9 -22 -7
c-27 -8 -30 -31 -5 -36 15 -3 15 -4 1 -10 -26 -10 -40 6 -42 51 -2 52 20 73
53 51z m905 -11 c11 -16 -3 -23 -19 -10 -8 7 -20 10 -26 6 -16 -10 7 -35 31
-35 27 0 26 -46 -1 -53 -28 -7 -60 3 -60 19 0 12 4 12 20 2 10 -7 22 -9 26 -5
9 9 -16 38 -27 31 -12 -7 -23 22 -15 41 6 17 61 21 71 4z m85 -8 c-5 -11 -10
-31 -10 -45 0 -14 -4 -26 -10 -26 -5 0 -10 12 -10 27 0 14 -7 35 -17 45 -15
17 -14 18 21 18 33 0 36 -2 26 -19z m97 -28 c25 -52 23 -61 -9 -46 -14 6 -32
7 -45 2 -18 -6 -23 -5 -23 7 0 27 29 84 42 84 7 0 23 -21 35 -47z m117 30 c5
-20 0 -72 -8 -80 -3 -3 -8 2 -12 11 -7 19 -30 22 -36 4 -7 -19 -28 1 -28 27 0
42 10 55 45 55 23 0 35 -5 39 -17z m86 8 c0 -6 -4 -13 -10 -16 -5 -3 -10 -22
-10 -41 0 -21 -4 -33 -10 -29 -5 3 -10 17 -10 31 0 14 -5 34 -10 45 -10 17 -7
19 20 19 16 0 30 -4 30 -9z m205 -2 c11 -17 -4 -24 -25 -11 -10 6 -21 8 -24 4
-7 -12 7 -29 29 -33 14 -3 20 -12 20 -29 0 -20 -6 -26 -28 -28 -36 -4 -62 15
-46 34 9 11 8 18 -1 29 -10 12 -10 18 0 30 14 17 66 20 75 4z m95 3 c0 -4 -5
-13 -11 -19 -7 -7 -12 -22 -13 -34 -2 -35 -26 -36 -26 -1 0 17 -3 37 -6 46 -5
13 1 16 25 16 17 0 31 -4 31 -8z m111 -32 c7 -47 -6 -70 -39 -70 -36 0 -52 17
-52 55 0 40 17 57 55 53 26 -3 31 -8 36 -38z m110 24 c16 -20 1 -48 -30 -52
-11 -2 -21 -10 -21 -18 0 -8 -7 -14 -15 -14 -11 0 -15 11 -15 43 0 24 3 47 7
50 12 13 61 7 74 -9z m277 -17 c3 -22 -1 -30 -17 -34 -21 -5 -29 -23 -11 -23
6 0 10 -4 10 -10 0 -5 -13 -10 -30 -10 -23 0 -30 4 -30 20 0 12 10 25 25 32
14 6 25 17 25 25 0 9 -8 11 -25 7 -14 -3 -25 -2 -25 3 0 17 14 24 45 21 25 -2
31 -8 33 -31z m218 11 c5 -16 0 -27 -17 -41 -22 -18 -22 -20 -6 -32 16 -11 15
-13 -13 -17 -56 -8 -63 40 -9 57 10 4 19 13 19 21 0 16 -9 18 -30 5 -20 -13
-34 -2 -19 15 19 23 66 18 75 -8z m-426 2 c0 -22 -30 -80 -41 -80 -7 0 -8 7
-4 18 4 9 12 29 17 45 10 26 28 37 28 17z m100 -35 c0 -47 -14 -61 -23 -22 -3
12 -9 32 -12 45 -6 18 -4 22 14 22 18 0 21 -6 21 -45z m412 18 c3 -29 32 -40
34 -13 2 34 4 40 14 40 6 0 10 -6 10 -14 0 -23 20 -29 39 -12 26 24 31 20 31
-24 0 -40 -13 -53 -24 -25 -8 22 -33 18 -47 -6 -9 -17 -13 -19 -20 -8 -7 11
-12 12 -28 2 -13 -8 -22 -9 -26 -3 -3 6 -15 10 -25 10 -29 0 -31 14 -7 48 27
39 45 41 49 5z m-1042 -18 c0 -8 -7 -15 -15 -15 -8 0 -15 7 -15 15 0 8 7 15
15 15 8 0 15 -7 15 -15z m820 0 c0 -8 -7 -15 -15 -15 -16 0 -20 12 -8 23 11
12 23 8 23 -8z m-2030 -237 c0 -5 -9 -8 -20 -8 -11 0 -20 -6 -21 -12 0 -10 -2
-10 -6 0 -8 19 28 56 39 40 4 -7 8 -16 8 -20z m239 -15 c31 -47 29 -64 -6 -45
-10 6 -18 20 -18 33 0 30 -21 35 -35 10 -8 -16 -8 -21 2 -21 15 0 -23 -29 -39
-30 -13 0 9 53 35 83 22 25 27 22 61 -30z m348 41 c-3 -3 -12 -4 -19 -1 -8 3
-5 6 6 6 11 1 17 -2 13 -5z m-520 -55 c-16 -47 -24 -54 -46 -40 -12 8 -9 15
17 39 18 17 32 36 32 43 0 7 3 10 6 7 3 -4 -1 -25 -9 -49z m319 29 c-3 -13 -6
-33 -6 -45 0 -39 -18 -25 -22 18 -4 44 -2 49 20 49 10 0 13 -7 8 -22z m144 8
c-6 -8 -10 -25 -8 -38 2 -19 11 -24 48 -29 57 -7 31 -22 -30 -17 -43 3 -43 3
-45 43 -1 50 1 55 27 55 17 0 18 -3 8 -14z m164 -1 c-4 -8 -1 -22 6 -30 10
-12 10 -18 0 -30 -18 -22 -30 -9 -30 36 0 28 4 39 15 39 9 0 12 -6 9 -15z
m102 -33 c1 -45 -8 -51 -41 -26 -17 13 -18 16 -5 24 8 5 19 10 24 10 5 0 3 6
-3 13 -12 15 -4 30 13 24 6 -2 11 -22 12 -45z m189 28 c-3 -10 -1 -28 4 -39 8
-14 7 -20 -4 -25 -8 -3 -18 -7 -22 -8 -9 -4 -15 43 -8 70 3 12 12 22 21 22 11
0 13 -6 9 -20z m88 11 c10 -1 9 -91 -2 -91 -5 0 -14 7 -21 15 -7 8 -20 15 -29
16 -11 0 -10 3 7 11 24 12 28 28 11 45 -9 9 -7 11 7 8 11 -2 22 -4 27 -4z
m109 -30 c-3 -33 0 -40 17 -46 12 -3 30 -3 41 0 12 4 20 2 20 -5 0 -7 -19 -10
-52 -8 -52 3 -53 4 -56 36 -4 41 3 62 20 62 10 0 12 -12 10 -39z m475 19 c4
-15 14 -20 38 -20 42 0 70 -29 52 -53 -11 -16 -44 -18 -119 -8 -5 1 -8 6 -8
12 0 11 35 8 71 -6 10 -4 19 0 23 11 8 22 5 25 -41 31 -45 6 -58 16 -50 37 9
22 28 20 34 -4z m243 5 c0 -8 -4 -15 -10 -15 -5 0 -10 -16 -10 -35 0 -19 -5
-35 -11 -35 -7 0 -9 12 -7 30 3 17 1 33 -4 36 -18 11 -7 34 17 34 16 0 25 -6
25 -15z m-540 -10 c0 -9 9 -15 25 -15 30 0 85 -26 85 -40 0 -13 -39 -32 -51
-25 -6 4 -3 12 8 21 16 12 16 15 3 24 -8 6 -26 9 -40 8 -32 -3 -65 16 -56 31
10 16 26 14 26 -4z m190 -25 c0 -22 -4 -40 -10 -40 -5 0 -10 18 -10 40 0 22 5
40 10 40 6 0 10 -18 10 -40z m190 30 c0 -5 -4 -10 -10 -10 -5 0 -10 5 -10 10
0 6 5 10 10 10 6 0 10 -4 10 -10z m-1830 -36 c0 -11 6 -14 20 -9 14 5 20 2 20
-9 0 -10 -9 -16 -25 -16 -14 0 -25 4 -25 9 0 5 -3 16 -6 25 -3 9 -1 16 5 16 6
0 11 -7 11 -16z m1470 -34 c12 -8 9 -10 -12 -10 -16 0 -28 5 -28 10 0 13 20
13 40 0z"/>
<path d="M5202 9567 c-10 -11 -9 -17 2 -26 21 -18 51 -9 51 14 0 24 -36 32
-53 12z"/>
<path d="M4718 9353 c7 -3 16 -2 19 1 4 3 -2 6 -13 5 -11 0 -14 -3 -6 -6z"/>
<path d="M4926 9361 c-4 -5 -2 -12 3 -15 5 -4 12 -2 15 3 4 5 2 12 -3 15 -5 4
-12 2 -15 -3z"/>
<path d="M3825 9164 c-45 -17 -89 -55 -113 -99 -15 -27 -17 -101 -20 -742 -3
-641 -2 -718 13 -763 18 -55 65 -102 117 -118 72 -22 3098 -35 3173 -13 51 15
87 46 110 96 17 36 18 70 17 410 -3 634 -13 1068 -25 1100 -19 52 -48 83 -96
104 -45 19 -79 20 -1116 25 -588 3 -1284 8 -1545 11 -405 4 -481 2 -515 -11z
m1670 -209 c1076 -9 1322 -15 1387 -30 73 -17 105 -37 115 -73 5 -15 8 -309 8
-654 0 -589 -1 -628 -18 -645 -17 -17 -69 -18 -1020 -15 -2205 7 -2089 6
-2118 25 -15 10 -30 28 -34 40 -4 12 -9 292 -12 622 -6 665 -3 707 45 720 90
22 158 23 1647 10z"/>
<path d="M4516 8849 c-19 -15 -26 -30 -26 -54 0 -19 -4 -37 -10 -40 -19 -12
-11 -37 9 -30 13 4 27 -1 40 -14 25 -25 31 -26 31 -6 0 8 5 16 10 16 6 1 15 3
20 4 6 1 14 3 20 4 6 0 7 20 3 49 -4 34 -13 53 -32 69 -32 28 -32 28 -65 2z
m58 -12 c13 -9 17 -23 14 -52 -3 -35 -6 -40 -31 -43 -55 -6 -77 48 -37 88 23
23 30 24 54 7z"/>
<path d="M6678 8837 c-48 -39 -37 -160 17 -199 5 -4 38 -8 73 -8 l62 0 0 -55
0 -55 -50 0 c-61 0 -125 -27 -109 -47 14 -16 154 -18 164 -3 3 6 14 10 25 10
22 0 28 15 36 84 6 47 4 56 -17 75 l-24 23 23 15 c19 13 22 24 22 77 0 33 -4
66 -8 71 -15 21 -65 35 -125 35 -49 -1 -68 -5 -89 -23z m160 -92 l-3 -50 -69
-3 -69 -3 7 32 c3 17 6 41 6 53 0 20 5 21 65 22 l66 0 -3 -51z"/>
<path d="M5040 8841 c-50 -7 -56 -20 -16 -39 15 -8 26 -21 26 -33 0 -11 5 -29
11 -41 l11 -20 15 21 c8 12 12 30 8 40 -4 15 1 23 22 33 15 7 28 20 28 28 0
17 -35 21 -105 11z"/>
<path d="M4007 8833 c-4 -3 -7 -30 -7 -60 0 -39 4 -55 15 -59 25 -10 45 16 45
57 0 46 -32 84 -53 62z"/>
<path d="M4099 8839 c-1 -2 -2 -30 -3 -62 -2 -48 0 -57 13 -55 23 4 28 90 6
108 -8 7 -15 11 -16 9z"/>
<path d="M4170 8775 c0 -41 3 -56 13 -52 7 2 12 22 12 52 0 30 -5 50 -12 53
-10 3 -13 -12 -13 -53z"/>
<path d="M4240 8775 c0 -53 11 -72 24 -39 8 20 -4 94 -15 94 -5 0 -9 -25 -9
-55z"/>
<path d="M4311 8779 c3 -69 19 -73 19 -5 0 33 -4 56 -10 56 -7 0 -10 -20 -9
-51z"/>
<path d="M6519 8813 c-16 -19 -17 -99 -1 -115 6 -6 18 -8 26 -5 22 9 23 137 2
137 -7 0 -20 -7 -27 -17z"/>
<path d="M5326 8813 c-3 -4 -6 -30 -6 -60 0 -40 4 -53 15 -53 20 0 19 -20 -1
-35 -20 -14 -31 -120 -14 -130 19 -12 39 28 40 78 l0 47 65 0 65 0 -6 -40 c-7
-42 17 -97 36 -85 16 10 12 111 -5 125 -8 7 -15 21 -15 31 0 11 7 19 15 19 12
0 15 13 15 55 0 30 -4 55 -10 55 -15 0 -30 -36 -30 -74 l0 -36 -49 0 c-27 0
-56 -3 -65 -6 -13 -5 -16 3 -16 49 0 38 -4 57 -14 60 -8 3 -17 3 -20 0z"/>
<path d="M5050 8624 c-7 -17 -6 -32 1 -45 15 -29 34 -18 37 23 4 45 -24 61
-38 22z"/>
<path d="M6516 8625 c-27 -28 -13 -126 19 -129 17 -1 27 116 11 132 -11 11
-16 11 -30 -3z"/>
<path d="M4380 8559 c0 -5 5 -7 10 -4 6 3 10 8 10 11 0 2 -4 4 -10 4 -5 0 -10
-5 -10 -11z"/>
<path d="M4417 8549 c4 -13 -3 -29 -21 -48 -30 -31 -26 -41 18 -41 28 0 28 1
11 14 -18 13 -18 14 3 41 17 21 19 31 11 41 -17 20 -28 17 -22 -7z"/>
<path d="M4502 8540 c-26 -34 -28 -50 -7 -50 8 0 24 -6 35 -12 17 -11 22 -10
30 1 5 9 5 22 -1 32 -5 10 -9 27 -9 38 0 30 -23 26 -48 -9z m28 -20 c0 -5 -7
-10 -16 -10 -8 0 -12 5 -9 10 3 6 10 10 16 10 5 0 9 -4 9 -10z"/>
<path d="M4610 8515 c0 -57 13 -73 24 -30 9 34 43 34 52 0 3 -14 10 -22 15
-19 11 6 11 61 0 89 -8 19 -8 19 -15 -2 -9 -29 -42 -30 -51 -3 -12 38 -25 20
-25 -35z"/>
<path d="M4608 8312 c-59 -3 -68 -5 -68 -22 0 -10 14 -30 31 -44 27 -23 39
-26 113 -26 l83 0 18 40 c10 22 16 42 14 44 -7 6 -122 11 -191 8z"/>
<path d="M5258 8313 c-27 -7 -22 -25 16 -62 33 -32 34 -32 121 -30 l87 2 2
-112 1 -111 -83 0 c-82 0 -152 -18 -152 -39 0 -6 11 -18 25 -27 35 -23 194
-17 223 9 11 10 18 26 15 36 -3 13 2 17 24 16 l28 0 0 142 c0 78 -3 144 -7
148 -13 13 -44 -5 -55 -33 -11 -25 -11 -24 -10 18 l2 45 -110 1 c-60 1 -118 0
-127 -3z"/>
<path d="M5802 8309 c-25 -10 -24 -16 17 -62 24 -27 28 -28 110 -25 l86 3 18
38 c10 21 15 42 12 47 -8 13 -212 12 -243 -1z"/>
<path d="M4801 8246 c-16 -35 -21 -67 -23 -145 l-2 -101 -70 0 c-120 0 -185
-31 -140 -65 13 -10 47 -14 109 -15 98 0 135 14 135 51 0 14 6 19 18 17 37 -6
42 9 42 132 0 171 -25 218 -69 126z"/>
<path d="M6054 8263 c-24 -37 -26 -43 -31 -149 -5 -87 -4 -92 18 -108 30 -20
65 -21 73 0 3 9 6 65 6 124 0 149 -24 196 -66 133z"/>
<path d="M5746 8223 c-23 -198 -18 -248 26 -235 59 18 63 25 67 122 l3 92 -33
34 c-18 19 -38 34 -45 34 -7 0 -15 -20 -18 -47z"/>
<path d="M4996 8144 c-23 -23 -20 -51 8 -69 52 -34 97 35 48 73 -21 16 -37 15
-56 -4z"/>
<path d="M6320 8140 c-12 -8 -10 -14 15 -40 26 -27 35 -30 87 -30 l58 0 0 -75
0 -75 -42 0 c-59 0 -118 -18 -118 -35 0 -28 42 -44 103 -40 65 4 63 8 51 -114
l-7 -61 -56 0 c-44 0 -65 -6 -95 -26 -34 -23 -37 -28 -23 -41 34 -34 227 -20
247 18 6 10 10 67 10 127 0 98 -2 110 -18 115 -11 2 -21 14 -25 26 -4 17 -1
21 18 21 13 0 27 5 30 10 4 6 4 54 0 105 -7 84 -10 95 -26 95 -11 0 -19 -7
-19 -15 0 -8 -5 -15 -11 -15 -6 0 -8 9 -4 21 5 14 2 25 -6 30 -19 12 -150 11
-169 -1z"/>
<path d="M6895 8096 c-20 -27 -25 -44 -25 -93 0 -59 11 -85 41 -96 31 -10 39
14 39 114 0 113 -13 130 -55 75z"/>
<path d="M5823 7988 c-13 -6 -23 -18 -23 -26 0 -30 33 -41 125 -41 73 0 94 3
113 18 49 42 15 61 -105 60 -48 0 -98 -5 -110 -11z"/>
<path d="M5200 7931 c-20 -14 -28 -248 -9 -282 7 -13 12 -29 11 -36 -6 -27 55
-43 166 -43 126 0 135 6 102 71 l-20 39 -71 0 c-39 0 -80 -5 -91 -11 -18 -9
-20 -9 -15 4 5 13 10 165 8 230 -1 9 -8 17 -16 17 -8 0 -15 5 -15 10 0 12 -30
13 -50 1z"/>
<path d="M6040 7924 c-24 -13 -25 -18 -30 -126 l-5 -113 -80 -5 c-60 -4 -91
-11 -125 -30 -85 -48 -46 -80 99 -80 107 0 167 14 187 45 16 25 35 282 22 308
-10 20 -33 21 -68 1z"/>
<path d="M4487 7923 c-4 -3 -7 -67 -6 -142 1 -204 19 -226 183 -217 55 3 104
10 109 15 17 17 -12 81 -41 92 -27 11 -114 7 -162 -6 -18 -5 -21 -4 -11 3 10
7 15 42 19 124 l4 114 -26 12 c-30 13 -59 16 -69 5z"/>
<path d="M6892 7851 c-42 -32 -37 -229 7 -246 29 -11 39 19 46 136 6 110 6
116 -13 121 -10 3 -28 -2 -40 -11z"/>
<path d="M4982 7818 c-20 -20 -15 -66 9 -79 26 -13 65 3 72 32 11 42 -50 78
-81 47z"/>
<path d="M4117 7283 c-11 -10 -8 -61 3 -68 16 -10 40 14 40 40 0 13 -7 26 -16
29 -19 7 -19 7 -27 -1z"/>
<path d="M5530 7265 c0 -8 7 -15 15 -15 8 0 15 7 15 15 0 8 -7 15 -15 15 -8 0
-15 -7 -15 -15z"/>
<path d="M5815 7220 c3 -5 13 -10 21 -10 8 0 14 5 14 10 0 6 -9 10 -21 10 -11
0 -17 -4 -14 -10z"/>
<path d="M6015 7260 c-7 -23 10 -50 30 -50 17 0 27 28 20 51 -8 25 -42 24 -50
-1z"/>
<path d="M6140 7266 c0 -9 7 -16 16 -16 9 0 14 5 12 12 -6 18 -28 21 -28 4z"/>
<path d="M3273 10058 c-23 -36 -32 -59 -22 -56 6 2 17 18 25 36 13 32 12 43
-3 20z"/>
<path d="M3195 9920 c-3 -5 -2 -10 4 -10 5 0 13 5 16 10 3 6 2 10 -4 10 -5 0
-13 -4 -16 -10z"/>
<path d="M3173 9878 c-23 -30 -24 -41 -2 -21 12 12 20 25 17 28 -3 3 -10 0
-15 -7z"/>
<path d="M3106 9754 c-9 -20 -14 -39 -11 -42 7 -8 12 -1 30 41 20 48 4 48 -19
1z"/>
<path d="M3055 9650 c-4 -12 -5 -24 -2 -27 3 -2 8 5 12 17 4 12 5 24 2 27 -3
2 -8 -5 -12 -17z"/>
<path d="M7786 9637 c3 -10 9 -15 12 -12 3 3 0 11 -7 18 -10 9 -11 8 -5 -6z"/>
<path d="M2426 9042 c-2 -1 -1 -13 1 -27 5 -23 8 -24 80 -22 69 2 77 4 84 25
8 21 6 22 -39 23 -26 0 -64 1 -85 2 -21 1 -40 1 -41 -1z"/>
<path d="M2555 8890 c-16 -17 -27 -21 -60 -17 -22 2 -50 8 -62 12 -19 6 -23 4
-23 -13 0 -30 19 -39 97 -44 79 -6 84 -1 73 56 l-5 28 -20 -22z"/>
<path d="M7909 7795 c-9 -59 -16 -625 -9 -625 4 0 15 20 24 43 28 73 24 552
-5 582 -6 6 -10 6 -10 0z"/>
<path d="M2542 7713 c-10 -4 -8 -9 7 -20 25 -17 48 -8 30 13 -12 15 -16 16
-37 7z"/>
<path d="M2443 7543 c-19 -2 -33 -10 -33 -17 0 -28 28 -37 107 -34 76 3 78 4
78 28 0 24 -3 25 -60 26 -33 1 -75 -1 -92 -3z"/>
<path d="M8275 7520 c-11 -18 -3 -20 86 -23 69 -2 84 1 84 13 0 12 -17 16 -82
18 -52 2 -84 -1 -88 -8z"/>
<path d="M2603 7438 c-5 -7 -12 -20 -16 -29 -4 -13 -21 -16 -96 -15 l-91 1 0
-26 c0 -35 13 -39 125 -39 106 0 121 8 110 62 -11 50 -19 62 -32 46z"/>
<path d="M8025 7353 c-7 -109 -18 -181 -42 -263 -14 -51 -21 -70 -57 -152 -20
-46 -86 -190 -97 -210 -5 -10 -9 -27 -9 -38 0 -19 -60 -112 -60 -94 -1 5 -8
-4 -16 -19 -9 -16 -13 -31 -11 -34 7 -6 -32 -89 -59 -128 -12 -16 -24 -42 -28
-57 -3 -15 -14 -34 -23 -44 -10 -9 -25 -34 -34 -55 -10 -20 -27 -47 -39 -59
-11 -11 -20 -29 -19 -38 2 -16 -33 -147 -51 -187 -12 -27 -19 -75 -10 -70 16
10 130 215 130 235 0 12 4 19 10 15 5 -3 14 13 20 36 6 23 15 49 20 58 5 9 36
75 69 146 34 72 71 148 83 170 11 22 34 64 50 94 16 30 39 68 50 83 11 16 18
32 14 35 -3 3 3 18 13 32 30 42 106 201 130 270 33 97 38 203 12 271 -11 30
-21 63 -21 72 0 9 -4 19 -9 22 -5 4 -12 -37 -16 -91z"/>
<path d="M8245 7349 c-12 -18 1 -21 97 -26 92 -4 127 4 114 26 -9 15 -202 15
-211 0z"/>
<path d="M7732 6788 c-7 -7 -12 -19 -12 -27 0 -11 5 -8 16 7 18 25 15 39 -4
20z"/>
<path d="M3910 5570 c-12 -8 -9 -10 13 -10 29 0 37 -14 12 -24 -24 -9 -20 -78
5 -94 11 -7 20 -19 20 -28 0 -12 7 -14 29 -9 17 3 32 2 36 -4 10 -18 32 -12
38 9 6 23 27 27 27 5 0 -14 29 -35 49 -35 6 0 11 13 11 29 0 17 4 33 10 36 9
6 17 -16 22 -65 4 -33 34 -38 63 -10 20 19 29 21 52 13 28 -10 111 -3 146 12
20 8 50 -12 40 -28 -4 -7 2 -8 18 -3 13 4 67 9 119 11 55 2 96 8 98 14 7 20
22 11 22 -11 0 -13 4 -30 10 -38 8 -12 10 -12 16 3 4 12 17 17 44 17 22 0 42
5 45 10 10 16 42 12 61 -7 15 -16 17 -16 30 1 14 20 67 19 157 -4 45 -11 50
-11 63 9 l15 21 30 -22 c25 -19 33 -20 49 -10 12 7 21 8 25 2 10 -16 22 -12
28 10 8 33 37 37 61 8 21 -25 57 -31 85 -13 8 4 46 10 85 12 44 3 77 10 88 20
9 8 22 12 29 7 9 -5 7 -11 -6 -21 -11 -7 -17 -13 -14 -13 2 -1 40 -1 84 -1
100 0 155 9 162 27 4 11 9 12 19 3 8 -6 14 -8 14 -4 0 5 8 1 18 -8 23 -21 72
-33 72 -17 0 7 13 11 33 9 17 -1 40 2 51 6 14 6 23 2 37 -16 l17 -24 7 28 c7
28 19 35 30 17 9 -14 51 -13 76 3 17 10 22 9 30 -5 14 -25 65 -33 93 -14 26
16 36 12 36 -16 0 -27 29 -22 36 6 3 14 13 27 21 31 14 5 28 -2 79 -40 17 -12
54 20 54 47 0 11 4 17 10 13 5 -3 7 -12 4 -19 -12 -32 109 -35 163 -5 35 20
38 20 50 3 7 -10 13 -21 13 -26 0 -21 29 -4 39 23 12 34 31 31 31 -5 0 -12 6
-28 12 -34 8 -8 12 -41 11 -92 -1 -65 2 -81 17 -95 20 -18 40 -13 40 10 0 8
16 22 36 30 34 14 36 16 21 33 -30 33 -39 77 -38 184 1 85 -2 110 -15 122 -21
21 -63 20 -71 -1 -10 -27 -25 -33 -67 -26 -21 3 -252 7 -515 9 -262 2 -530 6
-596 8 -66 3 -246 5 -400 4 -768 -3 -1350 2 -1353 12 -2 5 5 10 15 10 10 0
457 1 993 2 938 2 953 2 410 8 -896 11 -1493 11 -1510 0z m3091 -156 c3 -60 3
-116 -2 -124 -9 -18 -11 -13 -29 70 -21 103 -16 177 12 168 9 -3 15 -40 19
-114z m-1141 -3 c0 -6 -4 -13 -10 -16 -5 -3 -10 1 -10 9 0 9 5 16 10 16 6 0
10 -4 10 -9z"/>
<path d="M6630 5570 c0 -5 7 -10 16 -10 8 0 12 5 9 10 -3 6 -10 10 -16 10 -5
0 -9 -4 -9 -10z"/>
<path d="M3907 5370 c-16 -16 -27 -36 -25 -42 3 -8 9 -4 17 10 6 12 21 22 31
22 13 0 20 7 20 20 0 27 -10 25 -43 -10z"/>
<path d="M4450 5359 c0 -5 5 -7 10 -4 6 3 10 8 10 11 0 2 -4 4 -10 4 -5 0 -10
-5 -10 -11z"/>
<path d="M3870 5288 c0 -16 -9 -33 -20 -41 -16 -11 -19 -21 -14 -45 3 -17 13
-34 22 -37 27 -10 42 22 36 79 -5 55 -24 89 -24 44z"/>
<path d="M7268 5270 c-17 -29 -19 -30 -92 -30 -41 0 -78 -4 -81 -10 -8 -13
109 -13 158 1 32 9 37 14 37 39 0 17 -1 30 -2 30 -2 0 -11 -14 -20 -30z"/>
<path d="M6935 5058 c-19 -28 -6 -34 37 -19 17 6 55 11 84 11 30 0 54 4 54 9
0 11 -51 21 -111 21 -38 0 -51 -4 -64 -22z"/>
<path d="M3910 5023 c-92 -6 -89 -15 10 -34 77 -15 142 -19 341 -19 209 1 248
-2 259 -15 23 -28 -4 -43 -88 -48 -42 -2 -86 -8 -98 -12 -14 -4 -27 -1 -37 10
-11 11 -22 13 -34 7 -10 -5 -73 -7 -140 -5 -125 3 -156 -5 -118 -33 17 -13
184 -12 365 2 36 3 83 6 104 7 22 1 41 8 43 15 3 6 15 12 28 12 37 0 49 23 26
51 l-19 24 -239 0 c-227 0 -240 1 -282 23 -25 12 -50 21 -55 20 -6 -1 -36 -3
-66 -5z"/>
<path d="M6425 5010 c7 -11 192 -11 355 0 88 5 67 7 -128 8 -153 1 -231 -1
-227 -8z"/>
<path d="M6373 5002 c-17 -12 -23 -44 -15 -95 l7 -48 16 71 c16 69 14 86 -8
72z"/>
<path d="M5421 4995 c3 -2 25 -6 50 -8 54 -5 89 -22 89 -42 0 -8 9 -20 21 -28
11 -8 24 -28 29 -43 7 -23 8 -15 7 36 -2 62 -3 65 -27 65 -14 0 -29 6 -33 13
-5 7 -32 12 -74 12 -37 0 -64 -2 -62 -5z"/>
<path d="M5330 4971 c-17 -32 -9 -121 11 -121 4 0 11 20 14 44 l7 45 49 -6
c61 -7 64 3 4 18 -26 7 -45 17 -45 25 0 21 -28 17 -40 -5z"/>
<path d="M5602 4772 c-18 -32 13 -99 43 -94 69 12 239 20 350 17 275 -8 337
-7 348 4 6 6 8 14 4 17 -7 7 -596 6 -607 -1 -4 -2 -21 -7 -40 -10 -45 -8 -78
15 -82 57 -3 33 -3 33 -16 10z"/>
<path d="M4571 4747 c-11 -20 -10 -29 4 -57 14 -28 20 -31 43 -24 26 8 125 11
519 15 125 1 177 5 190 14 12 9 15 17 8 23 -10 8 -192 3 -535 -17 -155 -8
-192 -2 -198 34 -6 33 -18 37 -31 12z"/>
<path d="M5578 4639 c-5 -3 -8 -24 -6 -45 2 -32 6 -39 23 -37 61 8 561 20 620
16 77 -6 95 -15 95 -47 0 -27 18 -46 42 -46 14 0 18 8 18 33 0 37 -8 51 -32
60 -10 3 -18 15 -18 25 0 11 -6 24 -13 30 -14 12 -711 22 -729 11z"/>
<path d="M5000 4628 c-168 -4 -318 -9 -335 -10 -16 -1 -45 1 -62 6 -30 7 -34
5 -44 -21 -10 -28 -7 -189 5 -200 7 -8 9 4 11 80 0 31 6 62 12 68 8 8 99 10
320 5 322 -6 383 -11 383 -30 0 -6 4 -17 9 -25 8 -12 12 -11 27 3 28 28 15
143 -15 134 -3 -1 -143 -6 -311 -10z"/>
<path d="M5571 4500 c-1 -25 -6 -62 -11 -82 -10 -34 -13 -36 -43 -31 -18 3
-50 0 -71 -5 -49 -14 -60 -9 -75 35 -10 26 -15 32 -22 22 -5 -8 -9 -24 -9 -35
0 -12 -7 -27 -16 -34 -9 -8 -14 -25 -12 -44 3 -28 6 -31 33 -29 17 2 76 4 131
5 l101 1 6 86 c3 47 2 102 -2 121 l-9 35 -1 -45z"/>
<path d="M6353 4361 c-24 -20 -30 -55 -14 -80 7 -11 69 -14 335 -16 354 -2
336 -5 336 56 0 26 -4 29 -27 28 -16 0 -150 0 -300 0 -229 1 -272 4 -277 16
-7 20 -26 18 -53 -4z"/>
<path d="M4540 4311 c0 -5 -52 -10 -116 -10 -136 -1 -442 -19 -454 -26 -5 -3
-31 -6 -59 -6 -49 -2 -51 -3 -51 -30 0 -23 6 -30 27 -35 26 -7 168 8 266 27
60 11 67 11 67 -1 0 -5 -12 -10 -27 -10 -16 0 -41 -7 -57 -15 -19 -10 -58 -15
-123 -15 -97 0 -153 -17 -153 -47 0 -15 12 -17 26 -4 10 11 224 16 459 12 161
-3 185 -10 185 -56 0 -37 12 -85 21 -85 5 0 9 30 9 66 0 49 -5 75 -20 99 l-20
33 20 5 c17 4 20 13 20 56 0 28 -4 51 -10 51 -5 0 -10 -4 -10 -9z"/>
<path d="M5325 4203 c-15 -14 -17 -33 -13 -127 4 -90 2 -116 -11 -139 -12 -22
-21 -26 -36 -21 -11 4 -137 8 -280 9 -197 1 -271 -2 -307 -13 -66 -20 -90 -14
-100 26 -5 17 -14 32 -20 32 -17 0 -3 -161 15 -175 11 -8 12 -16 4 -35 -22
-57 -25 -89 -10 -109 23 -34 43 -26 43 17 0 20 4 43 8 50 6 9 74 14 261 20
139 4 260 4 269 1 9 -4 52 -8 94 -11 l77 -5 6 27 c4 16 -1 41 -11 63 -16 34
-16 38 5 104 11 37 25 99 30 137 6 37 12 70 15 73 12 12 98 15 123 4 16 -7 37
-26 48 -43 35 -54 45 -47 45 29 l0 68 -19 -24 -19 -25 -15 35 c-14 33 -19 36
-68 42 -85 11 -116 8 -134 -10z m-342 -380 c-7 -2 -21 -2 -30 0 -10 3 -4 5 12
5 17 0 24 -2 18 -5z m-310 -20 c-7 -2 -21 -2 -30 0 -10 3 -4 5 12 5 17 0 24
-2 18 -5z"/>
<path d="M6378 4168 c-15 -24 -33 -51 -40 -61 -11 -15 -9 -24 10 -57 12 -21
22 -47 23 -57 1 -19 9 5 31 97 l14 55 272 -2 c150 -1 272 2 272 7 0 15 -98 30
-198 31 -100 0 -288 14 -332 24 -21 5 -29 0 -52 -37z"/>
<path d="M5574 3949 c-16 -25 -14 -230 2 -253 9 -13 14 -46 14 -90 l0 -69 -37
8 c-48 9 -68 9 -121 -3 -38 -8 -44 -7 -57 12 -8 11 -15 31 -15 43 0 14 -6 23
-16 23 -13 0 -15 -8 -10 -37 7 -49 7 -162 0 -238 -4 -44 -1 -65 10 -80 14 -20
15 -19 25 8 6 16 11 37 11 47 0 47 116 53 155 8 11 -13 32 -29 48 -36 23 -10
27 -17 27 -55 0 -23 -7 -53 -17 -66 -13 -19 -14 -28 -5 -42 16 -26 15 -46 -4
-57 -20 -11 -36 -78 -20 -91 7 -6 26 -4 51 5 54 19 546 36 628 22 103 -18 73
-30 -121 -48 -62 -6 -117 -8 -122 -5 -4 3 -18 1 -31 -3 -14 -6 46 -11 166 -15
115 -4 193 -11 201 -18 17 -14 20 -163 4 -203 l-9 -25 -338 4 -338 5 -23 26
c-22 25 -24 26 -37 8 -8 -11 -15 -25 -15 -31 0 -18 -30 -16 -37 3 -3 8 -1 20
6 27 6 6 11 19 11 30 0 14 6 18 26 15 26 -3 26 -3 30 80 3 80 3 83 -22 94 -19
9 -27 9 -37 -1 -9 -10 -8 -15 6 -25 16 -13 25 -76 10 -76 -4 0 -20 12 -36 28
-24 23 -36 27 -82 26 l-53 -1 -16 41 c-9 23 -19 62 -22 89 -5 37 -11 47 -25
47 -11 0 -19 7 -19 15 0 8 9 15 20 15 17 0 20 7 20 40 0 38 -12 52 -25 30 -4
-6 -18 0 -37 15 -16 14 -35 25 -41 26 -7 1 -153 1 -324 0 -285 0 -314 2 -322
17 -4 9 -11 77 -15 151 -3 74 -8 136 -9 138 -2 2 -16 -6 -31 -18 -16 -13 -33
-18 -44 -14 -9 4 -138 7 -285 8 -300 2 -292 4 -282 -68 7 -43 20 -58 49 -49
15 5 17 2 12 -23 l-7 -29 235 4 c129 3 246 2 260 -2 19 -5 26 -13 26 -31 0
-14 7 -26 19 -30 26 -8 31 -36 20 -105 -8 -49 -6 -65 11 -105 11 -26 20 -48
20 -49 0 -2 -11 -15 -25 -30 -33 -36 -32 -53 9 -92 l34 -33 6 24 c6 23 12 25
64 26 31 0 84 2 117 2 33 1 163 -1 290 -5 200 -7 232 -10 242 -25 16 -21 17
-148 2 -191 l-11 -31 -320 -1 c-176 0 -331 3 -344 6 -31 8 -54 60 -54 120 0
24 -4 44 -10 44 -5 0 -10 -4 -10 -10 0 -25 -38 -7 -53 25 -17 35 -43 51 -102
62 -16 3 -45 12 -63 20 -30 13 -100 20 -257 26 l-50 2 3 -140 c3 -116 7 -143
22 -162 10 -13 16 -32 13 -42 -6 -24 17 -32 59 -20 21 6 34 6 36 0 2 -6 13 -7
28 0 33 12 131 12 139 -1 4 -6 -18 -11 -57 -12 -58 -1 -56 -2 27 -8 50 -4 111
-5 136 -2 42 4 49 2 63 -20 18 -27 18 -84 1 -97 -10 -8 -160 -25 -323 -37 -51
-4 -94 -10 -96 -13 -7 -11 15 -303 24 -327 7 -16 17 -24 34 -24 25 0 36 -16
36 -55 0 -21 2 -22 38 -14 20 4 95 9 165 10 144 2 165 -6 153 -55 l-6 -26
-148 6 c-81 4 -160 8 -177 8 l-30 1 2 -138 c1 -77 3 -140 5 -142 10 -10 57 10
61 26 7 26 43 24 70 -4 18 -18 29 -21 62 -16 l40 5 -35 6 c-26 4 -20 5 25 6
90 2 105 -4 105 -43 0 -29 -4 -34 -32 -40 -17 -4 -89 -4 -160 0 l-128 7 0 -57
0 -57 146 7 c121 6 146 5 142 -6 -4 -11 -36 -14 -146 -14 l-142 0 0 -47 0 -48
148 0 c136 0 148 1 160 20 13 21 46 27 57 10 7 -11 765 -14 765 -2 0 4 18 15
40 25 38 16 54 37 28 37 -9 0 -8 4 2 10 8 5 29 10 47 10 27 0 31 -3 26 -17 -4
-10 -14 -23 -22 -29 -26 -20 17 -25 170 -19 79 3 162 2 184 -2 l40 -8 -60 -6
-60 -6 73 -1 c47 -1 71 2 67 8 -3 5 1 10 9 10 9 0 16 -5 16 -11 0 -7 67 -10
205 -8 180 1 208 -1 224 -15 15 -13 20 -14 23 -4 5 13 34 16 230 22 89 3 99 6
117 27 28 33 26 43 -11 60 -47 20 -44 45 4 41 29 -2 39 2 48 18 15 28 9 66
-10 62 -42 -10 -327 -19 -341 -11 -18 9 -30 80 -17 103 4 8 16 12 27 9 12 -3
20 2 24 16 5 20 12 21 135 21 72 0 142 -4 155 -9 23 -9 27 -6 42 24 17 38 28
164 15 185 -6 10 -47 12 -188 7 l-180 -5 -7 26 c-4 17 0 34 13 51 19 26 20 26
193 29 96 2 175 5 176 6 1 1 -2 27 -6 57 -6 34 -5 95 1 164 6 61 12 123 12
138 l1 28 -120 2 c-66 2 -155 10 -197 17 l-78 15 0 51 c0 70 30 99 98 95 26
-1 55 -9 64 -18 15 -13 27 -13 113 2 116 20 125 23 125 44 0 9 7 34 15 56 8
22 14 77 15 121 0 89 -9 103 -54 83 -18 -9 -31 -7 -57 5 -44 20 -200 26 -222
7 -9 -7 -26 -11 -39 -9 -20 3 -24 10 -29 58 -3 30 -13 73 -23 95 -18 42 -22
170 -8 250 7 38 9 40 52 47 25 4 127 7 228 6 101 0 184 1 186 3 8 10 12 99 5
110 -9 16 -295 32 -393 22 -54 -5 -60 -4 -77 18 -10 13 -20 21 -23 18 -3 -3
-9 -76 -12 -162 -8 -169 -16 -196 -53 -163 -14 13 -46 18 -147 22 -241 10
-411 7 -419 -6 -9 -14 -71 -12 -83 3 -5 6 -13 34 -17 61 -8 58 -23 86 -48 86
-9 0 -23 11 -29 25 -10 22 -9 28 10 41 12 8 22 22 22 31 0 9 3 13 8 9 4 -4 12
37 18 91 9 77 8 105 -2 131 -7 17 -12 33 -11 33 6 4 76 9 272 19 229 12 431 8
448 -9 5 -5 10 -22 12 -38 1 -15 4 -35 8 -43 3 -8 10 -33 15 -55 9 -36 10 -31
11 48 1 87 -9 126 -44 167 -19 23 -7 80 16 80 11 0 19 7 19 15 0 17 -18 19
-40 5 -8 -5 -19 -5 -25 0 -11 9 -658 -5 -674 -15 -6 -3 -11 -2 -11 2 0 5 -6
17 -13 28 -12 15 -15 16 -23 4z m616 -99 c-37 -12 -200 -12 -200 0 0 6 44 10
113 9 71 -1 103 -4 87 -9z m-520 -10 c0 -5 -4 -10 -10 -10 -5 0 -10 5 -10 10
0 6 5 10 10 10 6 0 10 -4 10 -10z m267 4 c-3 -3 -12 -4 -19 -1 -8 3 -5 6 6 6
11 1 17 -2 13 -5z m586 -411 c-7 -2 -21 -2 -30 0 -10 3 -4 5 12 5 17 0 24 -2
18 -5z m150 -10 c-18 -2 -48 -2 -65 0 -18 2 -4 4 32 4 36 0 50 -2 33 -4z
m-2113 -28 c10 -12 10 -19 1 -28 -9 -9 -14 -9 -21 3 -22 34 -4 54 20 25z
m1803 -333 c-5 -12 -7 -12 -15 2 -11 20 1 44 12 25 5 -6 6 -19 3 -27z m-59 18
c-8 -8 -609 -16 -639 -8 -14 3 292 13 490 16 101 1 156 -1 149 -8z m-1065 -26
c2 -2 -134 -4 -302 -4 -206 0 -307 3 -307 10 0 8 95 9 303 4 166 -4 304 -8
306 -10z m28 -70 c70 -7 107 -24 83 -39 -6 -3 -166 -6 -357 -5 -351 1 -388 4
-362 36 17 21 454 26 636 8z m-707 -339 c0 -8 -4 -15 -10 -15 -5 0 -10 7 -10
15 0 8 5 15 10 15 6 0 10 -7 10 -15z m1028 -63 c19 -7 14 -39 -9 -55 -14 -11
-23 -31 -28 -71 -4 -31 -10 -58 -12 -59 -2 -2 -43 1 -91 6 l-88 10 -2 36 c-4
89 -3 103 12 116 8 7 26 15 40 18 32 6 161 6 178 -1z m-1028 -182 c0 -5 -2
-10 -4 -10 -3 0 -8 5 -11 10 -3 6 -1 10 4 10 6 0 11 -4 11 -10z m1675 0 c-29
-12 -184 -12 -165 0 8 5 53 9 100 9 57 0 78 -3 65 -9z m-455 -14 c8 -2 -19 -4
-60 -4 -43 0 -65 3 -51 7 23 6 75 5 111 -3z m118 7 c-10 -2 -28 -2 -40 0 -13
2 -5 4 17 4 22 1 32 -1 23 -4z m-668 -33 c0 -5 -7 -10 -15 -10 -8 0 -15 -9
-15 -20 0 -11 -4 -20 -10 -20 -5 0 -10 -4 -10 -9 0 -4 31 -11 69 -15 66 -7 69
-8 75 -36 3 -17 0 -47 -7 -67 l-12 -38 -335 -8 c-184 -4 -340 -5 -346 -3 -6 2
-15 22 -19 43 -9 49 -14 56 -30 43 -9 -7 -16 -6 -26 6 -11 13 -10 17 2 25 8 4
22 6 32 3 20 -6 46 20 47 47 0 13 17 17 98 22 53 3 108 9 121 15 22 8 18 10
-30 15 -30 4 -63 4 -74 2 -11 -3 -40 -1 -65 4 -31 6 45 9 253 10 192 1 297 -3
297 -9z m975 -19 c7 -12 -177 -18 -355 -11 l-75 3 65 6 c130 12 358 13 365 2z
m-18 -47 c81 -4 136 -11 142 -18 7 -8 6 -29 -3 -61 l-12 -50 -342 -3 -343 -2
-19 46 c-17 40 -25 80 -17 86 4 3 421 14 442 12 11 -1 80 -6 152 -10z m511
-211 c-16 -2 -40 -2 -55 0 -16 2 -3 4 27 4 30 0 43 -2 28 -4z m-1149 -34 c31
-19 33 -23 28 -60 -3 -23 -7 -42 -9 -44 -7 -8 -148 -9 -155 -1 -13 13 -9 92 6
109 19 24 88 22 130 -4z m-1162 5 c-3 -3 -12 -4 -19 -1 -8 3 -5 6 6 6 11 1 17
-2 13 -5z m973 -28 c0 -11 -19 -15 -25 -6 -3 5 1 10 9 10 9 0 16 -2 16 -4z
m672 -127 c173 -2 257 -7 256 -14 -2 -5 3 -25 11 -43 10 -23 11 -42 5 -65
l-10 -32 -174 -6 c-96 -4 -248 -8 -337 -9 -152 -2 -163 -1 -192 19 -19 14 -31
31 -31 44 1 24 22 57 36 57 5 0 14 10 19 23 8 17 21 23 60 27 28 3 61 5 75 4
14 -1 141 -3 282 -5z m-720 -37 c16 -8 34 -26 39 -40 8 -22 5 -30 -23 -59
l-32 -33 -338 0 -338 0 -16 25 c-14 22 -14 30 -3 67 l14 43 185 6 c335 10 480
8 512 -9z m168 -161 c0 -5 14 -11 31 -15 24 -5 30 -10 27 -28 -2 -19 -12 -24
-53 -31 -63 -10 -93 -3 -107 28 -14 31 -11 33 43 44 61 12 59 12 59 2z m500
-100 c85 -5 187 -6 225 -1 39 4 74 4 78 0 4 -4 5 -19 1 -34 l-6 -26 -182 2
c-99 2 -213 -1 -251 -5 -61 -7 -73 -6 -92 10 -12 10 -30 23 -40 30 -16 10 -16
13 -3 22 18 13 68 13 270 2z m-651 -15 c15 -10 14 -41 -2 -54 -9 -8 -26 -8
-61 1 -30 8 -80 10 -139 6 -85 -5 -212 -5 -394 -1 -70 2 -73 3 -73 27 l0 24
123 4 c182 5 534 0 546 -7z m257 -4 c6 -4 11 -14 11 -22 0 -8 2 -19 3 -25 1
-5 2 -18 1 -28 -1 -14 -5 -16 -20 -7 -11 5 -29 10 -40 10 -17 0 -21 6 -21 33
0 19 3 37 7 40 9 9 45 9 59 -1z m1027 -67 c2 -12 -68 -29 -88 -21 -28 11 -15
25 28 29 53 4 58 4 60 -8z m-603 -111 c0 -2 -12 -4 -27 -4 -21 0 -24 3 -14 9
13 8 41 5 41 -5z"/>
<path d="M4700 2300 c-22 -7 -21 -8 13 -9 23 -1 36 3 32 9 -7 11 -10 11 -45 0z"/>
<path d="M4720 1570 c0 -5 5 -10 10 -10 6 0 10 5 10 10 0 6 -4 10 -10 10 -5 0
-10 -4 -10 -10z"/>
<path d="M5291 3671 c-12 -8 -12 -12 2 -25 23 -23 37 -20 37 9 0 26 -14 31
-39 16z"/>
<path d="M5808 2933 c12 -2 30 -2 40 0 9 3 -1 5 -23 4 -22 0 -30 -2 -17 -4z"/>
</g>
</svg>
